<svg xmlns="http://www.w3.org/2000/svg" viewBox="0 0 2834.65 850.39"><defs><style>.cls-1,.cls-10,.cls-13,.cls-14,.cls-15{fill:#1d1d1b;}.cls-1{opacity:0.45;}.cls-11,.cls-2,.cls-3{fill:#010101;}.cls-11,.cls-3{stroke:#010101;}.cls-11,.cls-12,.cls-3,.cls-5{stroke-miterlimit:10;}.cls-3{stroke-width:4.31px;}.cls-4{fill:#fff;}.cls-12,.cls-5,.cls-7{fill:#1b1b1b;}.cls-12,.cls-5{stroke:#1b1b1b;}.cls-5{stroke-width:14.27px;}.cls-6{fill:#f4acc9;}.cls-8{fill:#eb5a4b;}.cls-9{fill:#e3cf9e;}.cls-10{fill-opacity:0.7;}.cls-10,.cls-15{opacity:0.7;}.cls-11{stroke-width:5.03px;}.cls-12{stroke-width:16.66px;}.cls-13,.cls-15{fill-opacity:0.4;}.cls-13{opacity:0.6;}.cls-14{fill-opacity:0.35;opacity:0.3;}</style></defs><title>sprite-animation-pierre</title><g id="_1" data-name="1"><ellipse class="cls-1" cx="288.09" cy="747.73" rx="93.44" ry="20.68"/><path class="cls-2" d="M274.41,747.62H238a10.22,10.22,0,1,1,0-20.43l28.55-8.7c12.42,1.9,19.48,11.6,18,18.91-1.31,6.63-9.32,9.87-10.22,10.22"/><path class="cls-2" d="M222.5,621.61c-.26-46.82,28.53-95.86,40.24-93.55,2.93.58,4.73,4.38,5.84,7.87-13.09,23.55-25.89,55.89-24.17,93.71,2.66,58.62,38.67,97.32,35.61,99.24-3.49,2.2-57.17-43.8-57.52-107.27"/><path class="cls-2" d="M305.87,746.62h36.38a10.21,10.21,0,1,0,0-20.42l-28.55-8.7c-12.42,1.9-19.48,11.6-18,18.91,1.31,6.63,9.32,9.87,10.21,10.21"/><path class="cls-2" d="M357.79,620.62c.26-46.83-28.54-95.86-40.24-93.56-2.94.58-4.74,4.38-5.84,7.87,13.09,23.55,25.89,55.89,24.17,93.72-2.66,58.61-38.67,97.31-35.61,99.24,3.49,2.2,57.17-43.8,57.52-107.27"/><path class="cls-2" d="M356.63,458.79v13.69a106.74,106.74,0,0,0-10.45-8.6,112.53,112.53,0,0,0-18.06-10.64l-.11-.06a121.41,121.41,0,0,0-11.65-4.76q-.12-3-.23-5.94-.21-5.34-.41-10.7v0l.13,0a132.2,132.2,0,0,1,26.8,10.7A123.92,123.92,0,0,1,356,450.76c.12.8.23,1.61.31,2.42v.06A53.71,53.71,0,0,1,356.63,458.79Z"/><path class="cls-3" d="M356.63,458.79v46c0,.63,0,1.26,0,1.89a52.54,52.54,0,0,1-1.46,10.7,54.23,54.23,0,0,1-52.54,41.45h-29a53.6,53.6,0,0,1-30.38-9.42,54.84,54.84,0,0,1-18.36-21.34,53.67,53.67,0,0,1-3.8-10.69,52.54,52.54,0,0,1-1.46-10.7c0-.63,0-1.26,0-1.89v-46a53.71,53.71,0,0,1,.29-5.55v-.06a53.39,53.39,0,0,1,2.25-10.7,54.62,54.62,0,0,1,27.44-32,53.47,53.47,0,0,1,24.06-5.69h29a53.51,53.51,0,0,1,24.07,5.69,54.37,54.37,0,0,1,27.43,32,53.32,53.32,0,0,1,1.94,8.28c.12.8.23,1.61.31,2.42v.06A53.71,53.71,0,0,1,356.63,458.79Z"/><path class="cls-2" d="M351.33,528.06a54.51,54.51,0,0,1-6.81,10.7H231.66a54.51,54.51,0,0,1-6.81-10.7Z"/><path class="cls-2" d="M355.13,517.36a54.39,54.39,0,0,1-3.8,10.7H224.85a53.76,53.76,0,0,1-3.8-10.7Z"/><path class="cls-4" d="M356.59,506.66a52.45,52.45,0,0,1-1.46,10.7H221.05a52.45,52.45,0,0,1-1.46-10.7Z"/><path class="cls-4" d="M356.63,496v8.74c0,.63,0,1.26,0,1.89h-137c0-.63,0-1.26,0-1.89V496Z"/><rect class="cls-2" x="219.55" y="485.28" width="137.08" height="10.69"/><rect class="cls-2" x="219.55" y="474.58" width="137.08" height="10.7"/><path class="cls-2" d="M356.34,453.18H219.84a53.39,53.39,0,0,1,2.25-10.7h132a53.32,53.32,0,0,1,1.94,8.28C356.15,451.56,356.26,452.37,356.34,453.18Z"/><path class="cls-2" d="M354.09,442.48h-132a54.58,54.58,0,0,1,4.76-10.69H349.33A53.42,53.42,0,0,1,354.09,442.48Z"/><rect class="cls-4" x="219.55" y="463.88" width="137.08" height="10.7"/><path class="cls-4" d="M356.63,458.79v5.09H219.55v-5.09a53.71,53.71,0,0,1,.29-5.55h136.5A53.71,53.71,0,0,1,356.63,458.79Z"/><path class="cls-4" d="M341.19,421.09a54,54,0,0,0-14.53-10.63H249.53a54.71,54.71,0,0,0-22.69,21.33H349.33A53.8,53.8,0,0,0,341.19,421.09Z"/><path class="cls-4" d="M231.66,538.76a54.57,54.57,0,0,0,11.55,10.64,53.6,53.6,0,0,0,30.38,9.42h29A53.6,53.6,0,0,0,333,549.4a54.33,54.33,0,0,0,11.55-10.64Z"/><path class="cls-5" d="M209.55,331.91s-15.25-25.3-3-62.52c0,0,28.57,5.83,37.95,20.47s6,8.19,6,8.19l-35.35,39.82Z"/><path class="cls-6" d="M210,289.49s7.43-.36,17.56,13.05l-11.23,20.17S206.8,319.15,210,289.49Z"/><path class="cls-5" d="M364.36,331.91s15.26-25.3,3-62.52c0,0-28.57,5.83-38,20.47s-5.95,8.19-5.95,8.19l35.35,39.82Z"/><path class="cls-6" d="M364,289.49s-7.42-.36-17.55,13.05l11.23,20.17S367.12,319.15,364,289.49Z"/><path class="cls-4" d="M380.31,359.07s-3.51,3.3-9.47,8.14c-17,13.9-53.82,40.63-85.4,40.56-26.88,0-61.75-23.16-80.84-37.54-8.56-6.46-14-11.16-14-11.16s11.22-1.19,19.93-18.17c29-69.54,74.87-62.95,74.87-62.95,45.12-1.12,72.14,50.25,74.94,62.95S380.31,359.07,380.31,359.07Z"/><path class="cls-7" d="M380.31,359.07s-3.51,3.3-9.47,8.14a1.84,1.84,0,0,1-.91-1.82c.77-3.23-37.62-14.46-60.91-24.7-18.11-8-21.12-48.28-21.12-48.28s.84,33.75-20.35,48.7a24.28,24.28,0,0,1-5.55,2.8C220.11,360,204.74,370.3,204.74,370.3l-.14-.07c-8.56-6.46-14-11.16-14-11.16s11.22-1.19,19.93-18.17c29-69.54,74.87-62.95,74.87-62.95,45.12-1.12,72.14,50.25,74.94,62.95S380.31,359.07,380.31,359.07Z"/><path class="cls-4" d="M307.8,333.76a11.63,11.63,0,0,1,23.26,0c0,2,3.18,2,3.15,0a14.79,14.79,0,0,0-26-9.57,15.17,15.17,0,0,0-3.52,9.57,1.58,1.58,0,0,0,3.16,0Z"/><path class="cls-4" d="M245.7,333.76a11.63,11.63,0,0,1,23.26,0,1.58,1.58,0,0,0,3.16,0,14.79,14.79,0,0,0-26.06-9.57,15.17,15.17,0,0,0-3.52,9.57,1.58,1.58,0,0,0,3.16,0Z"/><path class="cls-2" d="M295.41,342.78s-7.5-5.85-17.07,0C278.34,342.78,287.11,368.05,295.41,342.78Z"/><path class="cls-2" d="M269.23,355.5c3,2.14,5.95,4.1,8.7,4.64a7.77,7.77,0,0,0,3.63-.2,9.28,9.28,0,0,0,3.17-2.16l2.48-2.16,2,2.32a7.77,7.77,0,0,0,3,2.05,8.12,8.12,0,0,0,3.6.29,10.7,10.7,0,0,0,4.09-1.71,50.32,50.32,0,0,0,4.3-3.07l.3.19c-1.91,3-4.34,5.84-7.79,7.15s-7.48.05-10.06-2.52l.49,0a11.51,11.51,0,0,1-4.73,2.69,8.93,8.93,0,0,1-5.41-.32,18.74,18.74,0,0,1-8-7Z"/><polygon class="cls-2" points="313.4 350.52 379.49 357.66 313.21 352.61 313.4 350.52"/><polygon class="cls-2" points="313.19 347.81 402.96 341.52 313.36 349.9 313.19 347.81"/><polygon class="cls-2" points="312.34 345.18 388.69 330.38 312.77 347.23 312.34 345.18"/><polygon class="cls-2" points="262.97 353.77 196.69 358.83 262.78 351.68 262.97 353.77"/><polygon class="cls-2" points="262.82 351.06 173.22 342.68 262.99 348.97 262.82 351.06"/><polygon class="cls-2" points="263.41 348.4 187.49 331.54 263.84 346.34 263.41 348.4"/><path class="cls-8" d="M310.44,408.63s-30.6-14.43-30.32,1.57c.26,15.26,10,12.48,21.77,9.48s42.83-10.94,40.14-24.87C339,379.11,332.67,376.93,310.44,408.63Z"/><path class="cls-7" d="M312.19,405.64a84.6,84.6,0,0,0-10.19-4c-5.47-1.75-11.79-3.37-17.51-2a9.93,9.93,0,0,0-6.6,4.89c-1.78,3.49-1.43,7.91-.55,11.6a11.56,11.56,0,0,0,6.89,8.47c3.17,1.26,6.71.89,10,.35,3.46-.57,6.85-1.52,10.24-2.4,3.05-.78,6.09-1.6,9.1-2.5,7.16-2.15,14.42-4.68,20.87-8.52,5.43-3.24,11.29-8.25,11.22-15.16a25.72,25.72,0,0,0-1.65-7.87,15.86,15.86,0,0,0-3.22-5.84c-3.4-3.6-8.37-2.73-12.12-.22-6.51,4.36-11.45,11.13-16.08,17.31-1.75,2.34-3.45,4.71-5.13,7.09a3.5,3.5,0,0,0,1.24,4.74,3.54,3.54,0,0,0,4.74-1.24c4.89-7,9.66-13.81,16-19.66.47-.44.94-.86,1.44-1.27.12-.11.93-.76.45-.38s.37-.27.49-.35a12.47,12.47,0,0,1,1.24-.8c.17-.1,1.18-.49,1.21-.63-.06.29-.89.31-.37.17l.25-.1.54-.16c.16,0,.33-.05.47-.1s-1,0-.24,0h.48c.73,0-.7-.19-.36-.05a2.46,2.46,0,0,0,.39.09c.68.13-.39-.22-.26-.14s1,.67.43.21-.07-.05.05.07l.39.4c.46.46-.11,0-.17-.25,0,.13.24.34.31.45a10.43,10.43,0,0,1,.62,1.08c.09.16.16.34.24.5.36.71-.23-.66-.05-.14s.35.93.51,1.41c.33,1,.6,2.06.84,3.11.13.55.25,1.1.35,1.65,0,.13.05.27.08.4.14.62-.05-.32,0-.31s0,.83,0,1-.05,1.18,0,.51-.06.31-.11.49-.13.5-.21.74-.1.25-.13.37c-.19.64.35-.65,0-.1s-.57,1.07-.91,1.58c-.17.24-.74.84-.09.15-.25.26-.46.56-.71.82-.43.48-.9.93-1.38,1.37l-.81.69-.37.31c.67-.59.06-.05-.09.06a47.83,47.83,0,0,1-8.32,4.75c-.39.19-.79.36-1.18.54l-.51.22c-.85.36-1.71.7-2.58,1-1.58.61-3.19,1.18-4.8,1.72-5.72,1.93-11.55,3.45-17.4,4.93-1.67.43-3.34.84-5,1.19-.75.15-1.51.28-2.28.41s0,0,.15,0l-.63.07c-.41.05-.82.08-1.23.1-.65,0-1.3,0-2,0-.95,0,.4.12-.15,0-.34-.08-.68-.13-1-.23-.15,0-1.08-.42-.54-.16s-.32-.19-.46-.27c-.41-.25-.57-.51-.1,0-.23-.23-.48-.49-.73-.7s.08.12.15.21l-.31-.45c-.19-.3-.33-.61-.5-.91s-.2-.58.05.16c-.05-.16-.12-.32-.18-.48-.15-.44-.27-.88-.38-1.33s-.16-.78-.24-1.18c-.19-1,0,.42,0-.21,0-.23-.05-.46-.07-.69-.08-1-.09-1.95-.08-2.94a1.84,1.84,0,0,1,0-.42c-.07.1-.16.8,0,.32.07-.27.11-.55.19-.83,0-.11.08-.23.1-.34.13-.57.23.12-.12.25a4.18,4.18,0,0,0,.39-.73c.34-.66-.33.3-.06.05s.29-.31.43-.46.22-.16.3-.25c.25-.3-.68.38-.32.25a5.34,5.34,0,0,0,.68-.41c.77-.45-.35.08,0,0s.43-.15.64-.22l.77-.19c.17,0,1.2-.18.53-.11s.34,0,.48,0,.52,0,.78,0c.61,0,1.22,0,1.83,0s1.28.11,1.91.18c-.76-.09-.27,0,.16,0s.73.12,1.1.19c1.32.25,2.63.56,3.93.92,2.41.65,4.77,1.45,7.1,2.33q1.32.51,2.61,1.05c.79.32-.46-.21-.16-.07l.42.18.8.35.61.28a3.57,3.57,0,0,0,4.74-1.24A3.49,3.49,0,0,0,312.19,405.64Z"/><path class="cls-8" d="M333.84,421s.49-19.4-23.4-12.32c-15.52,8.9-.9,39.11,3,38.12,0,0,13.62-12.84-2.56-36.89C310.84,409.86,324.61,424.79,333.84,421Z"/><path class="cls-7" d="M337.3,421c.12-5-2.1-10.48-6-13.6-4.08-3.27-9.3-4.14-14.41-3.56a42.81,42.81,0,0,0-5.5,1,12.22,12.22,0,0,0-4.9,2.4,15.6,15.6,0,0,0-4.58,5.91c-2.26,5.09-2.24,10.65-1.3,16.05A46.66,46.66,0,0,0,305.45,443c1.48,2.77,4,7.28,7.68,7.25,2.66,0,4.32-2.71,5.53-4.75,5.86-9.86,3.65-21.9-1.39-31.59a62.41,62.41,0,0,0-3.44-5.78l-5.44,4.2a55.24,55.24,0,0,0,9,7.68c4.8,3.35,11.5,6.64,17.4,4.3a3.57,3.57,0,0,0,2.42-4.26c-.45-1.65-2.51-3.11-4.26-2.42a10,10,0,0,1-1.87.52c.94-.18.2,0-.05,0h-1c-.22,0-1.31-.2-.34,0l-.75-.15a17.62,17.62,0,0,1-2-.58l-.76-.29c.83.31-.29-.14-.44-.21-.59-.28-1.17-.58-1.75-.9a40.91,40.91,0,0,1-3.54-2.27l-.88-.65c-.59-.43.46.38-.15-.11s-1.05-.85-1.57-1.28c-.78-.66-1.54-1.34-2.29-2s-1.52-1.44-2.23-2.21c-2.63-2.85-7.63.9-5.43,4.2a47.65,47.65,0,0,1,6,12,35,35,0,0,1,1.22,5.27c.08.53-.06-.56,0,0l.06.58c0,.38.07.75.09,1.13,0,.77.05,1.53,0,2.29s-.09,1.33-.14,2c0,.2-.12.67,0-.21,0,.16-.05.31-.08.46-.05.34-.11.68-.18,1a21.81,21.81,0,0,1-.94,3.27c0,.09-.18.67-.27.7s.38-.85.14-.34c-.05.11-.09.22-.14.32-.18.4-.38.79-.59,1.18a18.9,18.9,0,0,1-1.21,2l-.26.37c-.42.59.3-.37.18-.24l-.44.54c-.14.15-.28.31-.43.46l1.52-.9a2.36,2.36,0,0,1,1.44,0c-.6-.18.75.36.44.2l-.3-.17c-.22-.16.78.72.22.15-.27-.27-.54-.54-.79-.82-.43-.48-.26-.07.07.12-.17-.1-.36-.49-.47-.65a28.34,28.34,0,0,1-1.76-2.95c-.31-.58-.6-1.17-.87-1.76-.13-.28-.26-.56-.38-.84,0-.06-.33-.77-.11-.23s-.05-.15-.1-.25a45.57,45.57,0,0,1-2.57-8.93c-.07-.38-.13-.77-.19-1.16.13.8,0-.06,0-.37-.09-.81-.14-1.62-.16-2.44s0-1.43,0-2.15c0-.37.06-.74.09-1.11,0-.13.09-.67,0-.15s.05-.28.07-.39a16.92,16.92,0,0,1,.47-2c.1-.35.22-.68.33-1,.05-.12.24-.61.05-.13s.11-.24.16-.34a18.26,18.26,0,0,1,1-1.72c.09-.14.19-.26.28-.39-.48.69-.19.22,0,.05s.52-.59.81-.87.55-.49.81-.74.51-.31-.11.09l.42-.29.43-.28c.68-.42-.42.1.2-.09s1.23-.34,1.85-.48c1-.23,1.94-.41,2.91-.58s-.41,0,.2,0l.62-.07c.49,0,1-.08,1.47-.1a19.79,19.79,0,0,1,2.31,0l.63.05c.13,0,.67.09.14,0s.17,0,.24.05l.57.12c.59.13,1.18.31,1.76.5.92.32-.49-.26.19.07.32.16.63.31.94.49a12.71,12.71,0,0,1,1.21.8c-.05.08-.7-.6-.23-.16l.33.28.59.59c.15.16.29.33.44.5.56.6-.32-.52,0-.07s.58.85.83,1.3c.13.22.24.44.35.67s.08.18.13.27c.24.46-.13.2-.12-.3a5.66,5.66,0,0,0,.47,1.3,17.09,17.09,0,0,1,.56,2.35c.18,1-.07-.94,0,.12,0,.25,0,.49.05.74a5.1,5.1,0,0,1,0,.68,3.46,3.46,0,0,0,6.92,0Z"/><rect class="cls-9" x="230.33" y="454.08" width="50.02" height="66.6" transform="translate(-129.39 94.03) rotate(-16.72)"/><rect class="cls-9" x="253.33" y="439.56" width="50.02" height="66.6" transform="translate(-65.31 45.1) rotate(-8.29)"/><rect class="cls-9" x="273.48" y="451.48" width="50.02" height="66.6"/><rect class="cls-9" x="286.36" y="443.91" width="50.02" height="66.6" transform="translate(35.33 -21.27) rotate(4.15)"/><rect class="cls-9" x="298.08" y="445.85" width="50.02" height="66.6" transform="translate(136.52 -67.81) rotate(15.16)"/><path class="cls-2" d="M311.37,504.81c1.66-4.78,3.26-9.59,4.95-14.37,40.16,16.84,95.77,5.73,41.27-15.7a2,2,0,0,1-.53-.37c-.16-4.42-.12-9.43-.31-13.69-.1-2.33-.32-3.61-.5-5.74,0,0,0,0,0,0a8.47,8.47,0,0,0-.52-2.42c5.52,2.81,7.06,5.39,12.66,8.84C428.71,498.51,367.73,533,311.37,504.81Z"/><path class="cls-2" d="M329.89,484.82c-9.18-4.45-18.66,1.41-22.8,10.48s-.52,19,8.38,22.9,21.53,2.11,24.37-7.38-.78-21.56-9.95-26"/><path class="cls-2" d="M267,508.43c-1.21-4.91-2.37-9.87-3.62-14.79-32.11,11-103.12.46-45.68-19.58a2.16,2.16,0,0,0,.61-.35c.56-4.13,1-8.77,1.24-12.79.11-2.2.32-3.44.5-5.46v0a7.57,7.57,0,0,1,.53-2.3c-5.56,2.51-7.28,3.95-13.09,7C144.88,493,210.26,530.47,267,508.43Z"/><path class="cls-2" d="M250.54,487.17c9.38-4,18.35,2.77,21.55,12.13s-.92,19-10.32,22.16-21.51.47-23.74-9.56a22,22,0,0,1,12.51-24.73"/></g><g id="_2" data-name="2"><ellipse class="cls-10" cx="856.95" cy="747.72" rx="137.62" ry="30.46"/><path class="cls-2" d="M843.63,723.83c-17-27.17-30.85-40.66-31.84-75.83-.81-28.83,11.46-58.65,26.63-83.65-2.21-1.3-.41-8.86-5.85-7.94-21.67,3.67-42,60.7-42.25,87.47-.26,25.39,16.21,59.73,42.16,75.41-9.19,3.9-18.29,4.67-27.51,7.64-5.33.37-10.19,4-9.87,9.79s3.3,9.69,10,10c10.88.53,24.14.08,35.53.51,4.66-2.62,8.61-3.93,10-10.12C851.7,732.66,848.12,726.29,843.63,723.83Z"/><path class="cls-2" d="M907.85,725.93c-9.17-3-18.41-3.29-27.34-7.94,25.67-16.36,44-48.31,44.8-74.39.87-27.51-17.63-84.22-39.08-89-5.39-1.2-3.86,6.68-6.08,7.83,14.31,25.44,25.57,55.67,23.52,84.33-2.5,35-17.18,49-34.36,76.09-4.53,2.45-8.19,8.79-7.23,13.32,1.34,6.25,5.25,7.5,9.88,10.2,11.39-.42,24.6,0,35.49-.5,6.72-.32,9.74-4.26,10.13-10S913.17,726.4,907.85,725.93Z"/><path class="cls-2" d="M924.61,487.11v13.48a106.71,106.71,0,0,0-10.31-8.48,113.17,113.17,0,0,0-17.83-10.48l-.12-.06a120.92,120.92,0,0,0-11.5-4.68c-.07-2-.15-3.9-.23-5.86-.13-3.51-.27-7-.4-10.54v0l.13,0A131.17,131.17,0,0,1,910.81,471,122.15,122.15,0,0,1,924,479.19c.12.79.23,1.58.31,2.38v.06A52.09,52.09,0,0,1,924.61,487.11Z"/><path class="cls-11" d="M924.61,487.11V532.4q0,.93,0,1.86a53,53,0,0,1-1.44,10.54,53.65,53.65,0,0,1-21.88,31.56,53.05,53.05,0,0,1-30,9.28H842.63a53,53,0,0,1-30-9.28,53.61,53.61,0,0,1-11.41-10.48,52.66,52.66,0,0,1-6.72-10.54,53.69,53.69,0,0,1-3.76-10.54,51.58,51.58,0,0,1-1.44-10.54c0-.62,0-1.24,0-1.86V487.11a52.07,52.07,0,0,1,.29-5.48v-.06A52.1,52.1,0,0,1,791.78,471a52.73,52.73,0,0,1,4.69-10.54,53.85,53.85,0,0,1,22.4-21,52.86,52.86,0,0,1,23.76-5.61h28.63A52.94,52.94,0,0,1,895,439.48,53.84,53.84,0,0,1,909.37,450,53.52,53.52,0,0,1,922.11,471a51.78,51.78,0,0,1,1.91,8.16c.12.79.23,1.58.31,2.38v.06A52.09,52.09,0,0,1,924.61,487.11Z"/><path class="cls-2" d="M919.38,555.34a53.57,53.57,0,0,1-6.72,10.54H801.23a52.66,52.66,0,0,1-6.72-10.54Z"/><path class="cls-2" d="M923.13,544.8a52.58,52.58,0,0,1-3.75,10.54H794.51a52.61,52.61,0,0,1-3.76-10.54Z"/><path class="cls-4" d="M789.27,523.79v8.61c0,.62,0,1.24,0,1.86a51.58,51.58,0,0,0,1.44,10.54H923.13a51.58,51.58,0,0,0,1.44-10.54c0-.62,0-1.24,0-1.86v-8.61Z"/><rect class="cls-2" x="789.27" y="513.19" width="135.34" height="10.53"/><rect class="cls-2" x="789.27" y="502.65" width="135.34" height="10.54"/><path class="cls-2" d="M924.33,481.57H789.56A52.1,52.1,0,0,1,791.78,471H922.11a51.78,51.78,0,0,1,1.91,8.16C924.14,480,924.25,480.77,924.33,481.57Z"/><path class="cls-2" d="M922.11,471H791.78a52.48,52.48,0,0,1,4.69-10.54H917.41A53.08,53.08,0,0,1,922.11,471Z"/><path class="cls-4" d="M924.33,481.63H789.56a52.21,52.21,0,0,0-.29,5.48v15.54H924.61V487.11A52.22,52.22,0,0,0,924.33,481.63Z"/><path class="cls-4" d="M909.37,450A53.65,53.65,0,0,0,895,439.48H818.87a53.95,53.95,0,0,0-22.4,21H917.41A52.69,52.69,0,0,0,909.37,450Z"/><path class="cls-4" d="M901.26,576.37a53.07,53.07,0,0,1-30,9.28H842.63a53,53,0,0,1-30-9.28Z"/><path class="cls-4" d="M912.66,565.88a53.87,53.87,0,0,1-11.4,10.49H812.64a53.44,53.44,0,0,1-11.41-10.49Z"/><path class="cls-12" d="M779.4,362.1s-15.06-24.93-2.94-61.59c0,0,28.22,5.74,37.48,20.16s5.88,8.07,5.88,8.07L784.91,368Z"/><path class="cls-6" d="M779.81,320.31s7.33-.36,17.33,12.85L786.06,353S776.68,349.53,779.81,320.31Z"/><path class="cls-12" d="M932.25,362.1s15.07-24.93,2.94-61.59c0,0-28.21,5.74-37.48,20.16s-5.88,8.07-5.88,8.07L926.74,368Z"/><path class="cls-6" d="M931.85,320.31s-7.34-.36-17.34,12.85L925.6,353S935,349.53,931.85,320.31Z"/><path class="cls-4" d="M948,388.86s-3.47,3.25-9.36,8c-16.76,13.69-53.14,40-84.31,40-26.54,0-61-22.82-79.82-37-8.45-6.36-13.78-11-13.78-11s11.08-1.18,19.67-17.91c28.62-68.51,73.93-62,73.93-62,44.54-1.1,71.22,49.5,74,62S948,388.86,948,388.86Z"/><path class="cls-7" d="M948,388.86s-3.47,3.25-9.36,8a1.82,1.82,0,0,1-.9-1.8c.76-3.18-37.13-14.24-60.13-24.33-17.88-7.89-20.86-47.57-20.86-47.57s.83,33.26-20.09,48a23.61,23.61,0,0,1-5.47,2.77c-41.37,15.83-56.54,26-56.54,26l-.14-.07c-8.45-6.36-13.78-11-13.78-11s11.08-1.18,19.67-17.91c28.62-68.51,73.93-62,73.93-62,44.54-1.1,71.22,49.5,74,62S948,388.86,948,388.86Z"/><path class="cls-4" d="M876.4,363.92a11.49,11.49,0,0,1,23,0c0,2,3.14,2,3.11,0a14.6,14.6,0,0,0-29.19,0,1.56,1.56,0,0,0,3.11,0Z"/><path class="cls-4" d="M815.09,363.92a11.48,11.48,0,0,1,23,0c0,2,3.15,2,3.12,0a14.6,14.6,0,0,0-29.19,0,1.56,1.56,0,0,0,3.11,0Z"/><path class="cls-2" d="M864.17,372.81s-7.4-5.77-16.86,0C847.31,372.81,856,397.7,864.17,372.81Z"/><path class="cls-2" d="M838.32,385.34c2.94,2.11,5.88,4,8.59,4.57a7.68,7.68,0,0,0,3.58-.19,9,9,0,0,0,3.13-2.14l2.45-2.12,1.95,2.28a7.75,7.75,0,0,0,3,2,8.1,8.1,0,0,0,3.56.29,10.51,10.51,0,0,0,4-1.69,50.36,50.36,0,0,0,4.24-3l.29.19c-1.88,2.91-4.28,5.75-7.68,7s-7.39.05-9.94-2.48l.49,0a11.57,11.57,0,0,1-4.67,2.65,8.71,8.71,0,0,1-5.34-.32,18.43,18.43,0,0,1-7.94-6.91Z"/><polygon class="cls-2" points="881.93 380.43 947.18 387.47 881.74 382.49 881.93 380.43"/><polygon class="cls-2" points="881.73 377.76 970.36 371.57 881.89 379.82 881.73 377.76"/><polygon class="cls-2" points="880.89 375.17 956.26 360.59 881.31 377.19 880.89 375.17"/><polygon class="cls-2" points="832.14 383.64 766.7 388.62 831.95 381.58 832.14 383.64"/><polygon class="cls-2" points="831.99 380.97 743.53 372.71 832.16 378.91 831.99 380.97"/><polygon class="cls-2" points="832.58 378.34 757.62 361.74 833 376.32 832.58 378.34"/><path class="cls-8" d="M879,437.68s-30.21-14.21-29.94,1.55c.27,15,9.89,12.29,21.5,9.34s42.29-10.78,39.63-24.5C907.2,408.6,901,406.46,879,437.68Z"/><path class="cls-7" d="M881.05,434.19a84.59,84.59,0,0,0-10.23-4c-5.51-1.76-11.87-3.35-17.63-1.94a10.41,10.41,0,0,0-6.87,5.13c-1.86,3.58-1.5,8.17-.57,12a12,12,0,0,0,7.19,8.7c3.28,1.29,7,.9,10.35.33a158.33,158.33,0,0,0,18.89-4.79c7.17-2.14,14.45-4.67,20.9-8.52,5.55-3.32,11.54-8.52,11.32-15.61a27.26,27.26,0,0,0-1.67-7.8,16.13,16.13,0,0,0-3.35-6c-3.55-3.7-8.74-2.91-12.66-.3-6.52,4.33-11.44,11.06-16.07,17.22-1.75,2.32-3.45,4.68-5.13,7.06a4.06,4.06,0,0,0,1.45,5.53,4.14,4.14,0,0,0,5.53-1.45c1.59-2.26,3.21-4.51,4.87-6.73l1-1.33.49-.65c-.36.48,0-.05.1-.12.73-.93,1.46-1.86,2.21-2.77a74.2,74.2,0,0,1,7-7.63c.47-.43.94-.86,1.43-1.27.21-.17.45-.33.65-.52-.91.89-.22.18.11-.06.78-.55,1.77-.89,2.52-1.46,0,0-1.07.38-.58.25l.25-.09.49-.15.53-.12c.57-.16-1.19,0-.46.08a3.85,3.85,0,0,0,.48,0c.8,0-.92-.23-.51-.08a2.6,2.6,0,0,0,.4.1c.57.12.4.49-.41-.2a3.06,3.06,0,0,0,.7.41c-1-.35-.75-.66-.37-.26l.39.39c.34.33.3.77-.23-.33.07.14.2.27.28.4.21.33.41.67.59,1,.09.16.16.33.25.5.39.8-.07-.17-.09-.22.15.44.34.88.49,1.33.32,1,.59,2,.82,3,.14.58.26,1.16.37,1.74,0,.14,0,.27.08.41.12.51-.25-.19-.06-.47-.1.15,0,.77,0,1s-.12.6-.05.77c-.21-.53.18-.95.06-.5,0,.13-.05.26-.07.38-.07.29-.16.56-.24.84-.3,1.09.36-.57,0,.13-.28.5-.53,1-.85,1.49-.08.12-.17.23-.24.34-.36.57.25-.33.25-.31,0,.2-.57.69-.71.83-.43.48-.89.93-1.37,1.37l-.72.62a2.12,2.12,0,0,1-.47.38c.27-.08.68-.51.14-.11a48.39,48.39,0,0,1-8.33,4.77l-1.05.47c-.32.14-1.21.52-.37.17-.81.34-1.62.67-2.44,1q-2.46,1-5,1.78c-5.56,1.87-11.23,3.35-16.9,4.79-1.73.44-3.46.87-5.21,1.23-.72.15-1.44.27-2.16.39-.89.16.76-.08.17,0l-.51.06c-.41,0-.82.08-1.23.1-.67,0-1.32,0-2,0-1,0,.59.16,0,0-.34-.09-.69-.14-1-.23a5.36,5.36,0,0,0-.77-.26c.87.1.73.36.42.16-.13-.09-.29-.15-.43-.24l-.33-.21c-.51-.28.07-.3.26.21-.06-.17-.51-.49-.65-.64-.6-.59.44.78-.08-.12-.15-.26-.29-.54-.45-.8-.34-.55.11.19.11.3a3,3,0,0,0-.19-.48c-.15-.43-.28-.87-.39-1.31s-.14-.91-.26-1.34.06.71,0,.1c0-.23,0-.45-.07-.68a29,29,0,0,1-.09-2.94c0-.06,0-.41,0-.42s-.22,1.08-.06.47c.06-.24.09-.5.16-.74s.41-1.12.09-.36.09-.09.18-.26.17-.22.22-.34c.18-.4-.68.71-.34.44a6,6,0,0,0,.5-.51c.55-.6-.58.33-.2.14s.46-.29.69-.42c.65-.37.26,0-.22.07a3.9,3.9,0,0,0,.73-.24c.22-.07.45-.13.68-.18s1.28-.21.45-.09.23,0,.41,0l.78,0c.61,0,1.22,0,1.83,0l.85.07c.16,0,1.32.16.53.05l.55.08,1.1.2c1.25.24,2.49.54,3.72.87,2.38.64,4.72,1.43,7,2.3l2.63,1,.25.11-.61-.26.48.21.76.33.62.28c1.91.9,4.45.6,5.53-1.45C883.45,437.93,883.09,435.15,881.05,434.19Z"/><path class="cls-8" d="M902.12,449.82s.48-19.11-23.11-12.14c-15.33,8.77-.89,38.53,2.93,37.56,0,0,13.44-12.65-2.54-36.34C879.4,438.9,893,453.6,902.12,449.82Z"/><path class="cls-7" d="M906.16,449.82A18,18,0,0,0,900.1,436c-4.13-3.35-9.45-4.32-14.65-3.73a43.42,43.42,0,0,0-5.45,1,13,13,0,0,0-5.34,2.59,15.82,15.82,0,0,0-4.56,5.82c-4.31,9.55-1.28,21.4,3.46,30.23,1.63,3.05,4.18,7.32,8.1,7.43,2.86.09,4.72-2.84,6-5,5.93-9.95,3.68-22.11-1.44-31.88a58,58,0,0,0-3.34-5.56l-6.34,4.89a54.76,54.76,0,0,0,9,7.67c4.87,3.4,11.68,6.67,17.66,4.3,2-.78,3.55-2.74,2.82-5-.61-1.9-2.86-3.66-5-2.83a4.2,4.2,0,0,1-1.86.52c.64-.08.79-.1.47-.07l-.36,0h-1l-.5,0c-.44-.05-.33,0,.32,0-.13-.12-.59-.11-.75-.15a16.27,16.27,0,0,1-1.78-.5,3.4,3.4,0,0,1-1-.38c.55.23.62.26.21.08l-.5-.23c-.59-.28-1.17-.58-1.74-.91a37.74,37.74,0,0,1-3.4-2.18l-.77-.56c-.92-.69.3.25-.24-.18l-1.37-1.11c-.8-.68-1.59-1.38-2.36-2.1s-1.47-1.4-2.16-2.14c-3.08-3.32-8.92,1-6.35,4.9a59.69,59.69,0,0,1,3.83,6.51c.21.43.42.86.62,1.3.06.12.65,1.53.38.85.39,1,.75,1.95,1.07,2.94a36.65,36.65,0,0,1,1.22,5.25c-.15-.91,0,0,0,.39s.07.76.09,1.13c0,.72,0,1.44,0,2.15s-.09,1.33-.14,2,.17-1,0,.09c-.06.34-.12.67-.19,1a21.86,21.86,0,0,1-.9,3.16c-.09.23-.19.46-.27.7,0,.09.45-1,.05-.15-.19.42-.39.83-.62,1.24a17.82,17.82,0,0,1-1.14,1.86c-.43.62-.66.76,0,0-.15.17-.29.36-.45.53s-.28.32-.43.46l1.78-1a3,3,0,0,1,2.33.27,1.57,1.57,0,0,1-.31-.18c-.15-.13.89.83.33.24-.25-.27-.51-.51-.75-.79s-.42-.84.12.18a7.24,7.24,0,0,0-.47-.66,27,27,0,0,1-1.72-2.88c-.29-.55-.56-1.11-.83-1.68l-.42-.94c-.07-.15-.28-.64,0-.06s-.06-.16-.11-.29a43.82,43.82,0,0,1-2.5-8.69,4.27,4.27,0,0,0-.16-1c.26.49.09.74,0,.3,0-.22,0-.43-.07-.65-.09-.81-.14-1.62-.16-2.44s0-1.35,0-2c0-.37.06-.74.09-1.12.07-.81-.11.16,0,.22s.09-.54.1-.6a17,17,0,0,1,.48-2c.09-.3.2-.6.3-.9,0-.1.32-.85.06-.17s0,0,.09-.16c.32-.63.71-1.21,1.07-1.82.14-.25.19-.58-.21.25a2,2,0,0,1,.3-.37c.27-.29.53-.59.82-.87s.56-.47.82-.73-.67.45-.22.18l.42-.29.54-.35c-.2.12-.76.24,0,.06.61-.14,1.22-.33,1.84-.47.95-.22,1.92-.36,2.88-.55.6-.11-.7,0-.12,0,.25,0,.51-.05.77-.07.48-.05,1-.08,1.46-.09a19.11,19.11,0,0,1,2.14.05l.5,0c.86.06-.78-.15-.23,0,.38.08.76.12,1.14.21.59.14,1.16.32,1.74.52.95.32-.59-.33,0,0,.28.16.57.28.85.44l.7.43c.42.28.68.81,0-.05.31.38.78.67,1.12,1l.44.49c.65.7-.5-.75-.09-.12.27.41.55.8.79,1.23.12.22.24.44.34.67.2.4.32,1.15,0-.18.12.44.34.86.47,1.3a18.35,18.35,0,0,1,.55,2.33c.19,1.05-.11-1.15,0-.09,0,.24,0,.48.06.72s0,.44,0,.66a4.07,4.07,0,0,0,4,4A4.11,4.11,0,0,0,906.16,449.82Z"/><polygon class="cls-9" points="873.44 578.42 826.14 592.6 807.23 529.75 854.53 515.58 873.44 578.42"/><rect class="cls-9" x="825.43" y="516.03" width="49.38" height="65.62" transform="translate(-70.16 128.1) rotate(-8.28)"/><rect class="cls-9" x="842.73" y="514.15" width="49.38" height="65.62"/><rect class="cls-9" x="853.06" y="518.46" width="49.38" height="65.62" transform="translate(42.07 -61.91) rotate(4.14)"/><polygon class="cls-9" points="895.77 591.26 848.1 578.38 865.3 515.04 912.96 527.92 895.77 591.26"/><path class="cls-2" d="M882.9,578.75c-2.06-4.35-4.06-8.76-6-13.16,22.95-6.93,92.22-40.83,48.29-62.72a2.38,2.38,0,0,1-.49-.43c.1-4.43.25-9.46.34-13.7,0-2.33-.07-3.56-.1-5.68V483a12.57,12.57,0,0,0-.28-2.42c4.8,2.92,6.84,5.52,11.58,9C987.26,526.94,920.49,569.24,882.9,578.75Z"/><path class="cls-2" d="M883.38,552.22c-9.38,3.16-13.8,13.12-10.58,22.66s13.16,14,22.47,10.64,16.27-13.62,12.36-22.86-14.86-13.6-24.25-10.44"/><path class="cls-2" d="M831.07,578.75c2.06-4.35,4.06-8.76,6-13.16-23-6.93-92.21-40.83-48.29-62.72a2.38,2.38,0,0,0,.49-.43c-.1-4.43-.24-9.46-.34-13.7-.05-2.33.07-3.56.1-5.68V483a12.57,12.57,0,0,1,.28-2.42c-4.8,2.92-6.84,5.52-11.58,9C726.71,526.94,793.48,569.24,831.07,578.75Z"/><path class="cls-2" d="M830.59,552.22c9.38,3.16,13.8,13.12,10.58,22.66s-13.16,14-22.47,10.64-16.27-13.62-12.36-22.86,14.86-13.6,24.25-10.44"/></g><g id="_3" data-name="3"><ellipse class="cls-13" cx="1422.68" cy="746.19" rx="84.03" ry="18.6"/><path class="cls-2" d="M1411.46,710.37c-24.6-31.63-30.17-56.2-23.15-95.73,5.76-32.39,13.36-63.87,26.72-94.57-3.57-.68-.27-11.29-6.64-7.1-25.35,16.68-36.9,64.91-41,96.24-3.9,29.71.66,78.81,31.59,96.88-9.25,8.43-18.75,14.69-28.66,21.73-4.54,2.51-9,5.84-6.66,11.69s5.34,8.67,12.52,7.42c11.61-2,23.58-8.59,35.29-11.67,4-4.35,8.11-5.63,8.56-12.41C1420.34,717.94,1416.22,712.5,1411.46,710.37Z"/><path class="cls-2" d="M1479.56,726.84c-10.33-7.66-20.58-14.14-30.48-22.84,30.55-18,32.22-64.46,29.07-93.57-3.33-30.7-12.62-83.48-40.06-97.14-6.89-3.43-2.94,6.33-6.42,7.86,16.17,28.77,20.63,62.41,25.09,93.7,5.44,38.16,4.74,62.35-20.58,92.54-4.94,1.51-9.07,6.65-9,11.55.17,6.78,4.22,8.68,8.14,13.22,12.27,3.79,25.56,10.71,37.58,13.51,7.43,1.72,10.21-.89,12.88-6.66S1484,729.55,1479.56,726.84Z"/><path class="cls-2" d="M1491.06,440.59v13.65a110.48,110.48,0,0,0-10.43-8.58,113,113,0,0,0-18-10.61l-.11-.06a122.5,122.5,0,0,0-11.63-4.75q-.11-3-.23-5.92c-.13-3.56-.27-7.12-.4-10.68v0l.13,0a131.65,131.65,0,0,1,26.74,10.68,124.8,124.8,0,0,1,13.35,8.25c.12.8.22,1.61.31,2.42v.06A53.37,53.37,0,0,1,1491.06,440.59Z"/><path class="cls-3" d="M1491.06,440.59v45.87c0,.63,0,1.26,0,1.89a52.86,52.86,0,0,1-1.46,10.67,54.11,54.11,0,0,1-52.42,41.36h-28.93a53.44,53.44,0,0,1-30.31-9.4,54,54,0,0,1-22.12-32,52.85,52.85,0,0,1-1.45-10.67c0-.63,0-1.26,0-1.89V440.59a53.38,53.38,0,0,1,.28-5.54V435a54.06,54.06,0,0,1,53.64-48.31h28.93a53.45,53.45,0,0,1,24,5.68,54,54,0,0,1,29.3,40.21c.12.8.22,1.61.31,2.42v.06A53.37,53.37,0,0,1,1491.06,440.59Z"/><path class="cls-2" d="M1485.76,509.7a53.46,53.46,0,0,1-6.79,10.67h-112.6a53.91,53.91,0,0,1-6.79-10.67Z"/><path class="cls-2" d="M1489.56,499a53.58,53.58,0,0,1-3.8,10.68H1359.58a54.21,54.21,0,0,1-3.8-10.68Z"/><path class="cls-4" d="M1354.29,477.74v8.73c0,.62,0,1.25,0,1.88a52.15,52.15,0,0,0,1.45,10.67h133.78a52.86,52.86,0,0,0,1.46-10.67c0-.63,0-1.26,0-1.88v-8.73Z"/><rect class="cls-2" x="1354.29" y="467.01" width="136.77" height="10.66"/><rect class="cls-2" x="1354.29" y="456.34" width="136.77" height="10.67"/><path class="cls-2" d="M1490.77,435h-136.2a53.8,53.8,0,0,1,2.25-10.67h131.71a54.08,54.08,0,0,1,1.93,8.25C1490.58,433.37,1490.68,434.18,1490.77,435Z"/><path class="cls-2" d="M1488.52,424.32h-131.7a53.53,53.53,0,0,1,4.75-10.67h122.21A53.5,53.5,0,0,1,1488.52,424.32Z"/><path class="cls-4" d="M1490.77,435.05h-136.2a53.38,53.38,0,0,0-.28,5.54v15.75h136.77V440.59A53.37,53.37,0,0,0,1490.77,435.05Z"/><path class="cls-4" d="M1483.78,413.65H1361.57a53.58,53.58,0,0,1,8.12-10.68h106A54,54,0,0,1,1483.78,413.65Z"/><path class="cls-4" d="M1475.65,403h-106a53.94,53.94,0,0,1,14.51-10.6h77A54.06,54.06,0,0,1,1475.65,403Z"/><path class="cls-4" d="M1366.37,520.37A54.14,54.14,0,0,0,1377.9,531a53.5,53.5,0,0,0,30.31,9.39h28.93a53.53,53.53,0,0,0,30.31-9.39A54.09,54.09,0,0,0,1479,520.37Z"/><path class="cls-5" d="M1344.32,314s-15.23-25.25-3-62.38c0,0,28.51,5.82,37.87,20.42s5.94,8.17,5.94,8.17l-35.28,39.73Z"/><path class="cls-6" d="M1344.72,271.67s7.41-.35,17.52,13L1351,304.82S1341.57,301.26,1344.72,271.67Z"/><path class="cls-5" d="M1498.77,314s15.23-25.25,3-62.38c0,0-28.51,5.82-37.87,20.42s-5.94,8.17-5.94,8.17l35.27,39.73Z"/><path class="cls-6" d="M1498.36,271.67s-7.41-.35-17.51,13l11.2,20.13S1501.52,301.26,1498.36,271.67Z"/><path class="cls-4" d="M1514.68,341.1s-3.5,3.29-9.45,8.12c-16.94,13.86-53.7,40.54-85.2,40.47-26.82,0-61.61-23.11-80.66-37.46-8.54-6.44-13.93-11.13-13.93-11.13s11.2-1.19,19.89-18.14c28.91-69.38,74.7-62.8,74.7-62.8,45-1.12,72,50.13,74.77,62.8S1514.68,341.1,1514.68,341.1Z"/><path class="cls-7" d="M1514.68,341.1s-3.5,3.29-9.45,8.12a1.84,1.84,0,0,1-.91-1.82c.77-3.22-37.52-14.42-60.77-24.65-18.06-8-21.07-48.16-21.07-48.16s.84,33.67-20.3,48.58a24.41,24.41,0,0,1-5.54,2.8c-41.79,16-57.13,26.33-57.13,26.33l-.14-.07c-8.54-6.44-13.93-11.13-13.93-11.13s11.2-1.19,19.89-18.14c28.91-69.38,74.7-62.8,74.7-62.8,45-1.12,72,50.13,74.77,62.8S1514.68,341.1,1514.68,341.1Z"/><path class="cls-4" d="M1442.34,315.84a11.6,11.6,0,1,1,23.2,0c0,2,3.18,2,3.15,0a14.75,14.75,0,0,0-29.5,0c0,2,3.12,2,3.15,0Z"/><path class="cls-4" d="M1380.38,315.84a11.6,11.6,0,1,1,23.2,0,1.58,1.58,0,0,0,3.16,0,14.76,14.76,0,0,0-29.51,0c0,2,3.12,2,3.15,0Z"/><path class="cls-2" d="M1430,324.84s-7.49-5.84-17,0C1412.94,324.84,1421.7,350.05,1430,324.84Z"/><path class="cls-2" d="M1403.85,337.54c3,2.13,5.94,4.08,8.69,4.63a8,8,0,0,0,3.61-.2,9.09,9.09,0,0,0,3.17-2.17l2.47-2.15,2,2.32a7.57,7.57,0,0,0,3,2,8,8,0,0,0,3.58.29,10.45,10.45,0,0,0,4.09-1.71,51.44,51.44,0,0,0,4.29-3l.29.19c-1.9,2.95-4.33,5.82-7.77,7.13s-7.46,0-10-2.52l.5,0a11.66,11.66,0,0,1-4.72,2.69,8.9,8.9,0,0,1-5.4-.32,18.66,18.66,0,0,1-8-7Z"/><polygon class="cls-2" points="1447.92 332.56 1513.86 339.69 1447.73 334.65 1447.92 332.56"/><polygon class="cls-2" points="1447.71 329.86 1537.28 323.58 1447.89 331.94 1447.71 329.86"/><polygon class="cls-2" points="1446.87 327.24 1523.04 312.47 1447.29 329.29 1446.87 327.24"/><polygon class="cls-2" points="1397.61 335.81 1331.48 340.86 1397.42 333.73 1397.61 335.81"/><polygon class="cls-2" points="1397.46 333.11 1308.06 324.75 1397.63 331.02 1397.46 333.11"/><polygon class="cls-2" points="1398.05 330.45 1322.31 313.63 1398.47 328.4 1398.05 330.45"/><path class="cls-8" d="M1445,390.54s-30.53-14.39-30.25,1.57c.26,15.22,10,12.45,21.72,9.46s42.74-10.92,40-24.82C1473.46,361.09,1467.15,358.92,1445,390.54Z"/><path class="cls-7" d="M1446.72,387.55a83.77,83.77,0,0,0-10.14-3.95c-5.46-1.75-11.74-3.36-17.46-2a9.91,9.91,0,0,0-6.66,4.95c-1.75,3.47-1.39,7.85-.52,11.52a11.56,11.56,0,0,0,6.88,8.45c3.16,1.26,6.7.89,10,.35,3.45-.57,6.84-1.52,10.23-2.39,3-.76,5.93-1.56,8.87-2.44,7.18-2.15,14.46-4.67,20.93-8.5,5.45-3.24,11.36-8.25,11.29-15.18a26,26,0,0,0-1.62-7.81,16,16,0,0,0-3.23-5.87c-3.36-3.59-8.32-2.75-12-.27-6.53,4.33-11.46,11.11-16.09,17.28q-2.62,3.51-5.14,7.1a3.46,3.46,0,0,0,6,3.5c4.87-6.94,9.62-13.75,15.9-19.59.5-.46,1-.91,1.52-1.34.21-.18.44-.34.65-.52-.82.69,0,0,.22-.15.43-.3.86-.58,1.31-.84.19-.11,1.16-.45,1.22-.62-.08.22-.92.32-.19.1.18-.05.36-.12.54-.16s.36-.07.53-.12c.35-.1-1.08,0-.25.06h.43c.66,0-.82-.21-.41-.06l.45.1c.61.13,0,.1-.27-.13a3,3,0,0,0,.74.45c-.65-.15-.66-.6-.29-.2l.39.39c.5.49-.08-.09-.14-.21.09.16.22.31.31.46a10.38,10.38,0,0,1,.59,1c.09.17.16.34.25.51.37.76-.28-.74,0-.08.17.48.35.94.51,1.43.32,1,.59,2,.82,3,.13.55.25,1.1.35,1.65,0,.14.05.27.08.41.14.67.06-.63,0-.22a5.6,5.6,0,0,0,0,1c0,.12-.06,1.09,0,.41s-.07.31-.11.49-.14.5-.22.75l-.13.36c-.2.65.36-.64,0-.1s-.57,1.08-.92,1.59c-.17.24-.75.82-.09.15-.26.26-.47.56-.72.83-.44.47-.9.93-1.38,1.36l-.82.7-.38.3c.43-.35.24-.18-.09.06a47.91,47.91,0,0,1-8.24,4.7l-1.18.53c-.18.08-1.35.58-.65.29l-2.45,1c-1.63.63-3.29,1.22-4.95,1.77-5.65,1.89-11.41,3.4-17.17,4.86-1.71.43-3.43.86-5.16,1.21-.71.14-1.42.26-2.13.38-.86.14.56,0,0,0l-.51.06c-.4,0-.81.07-1.22.09-.65,0-1.3,0-2,0-1,0,.41.12-.15,0-.34-.08-.67-.13-1-.23-.14,0-1.08-.42-.53-.16s-.32-.19-.46-.27c-.41-.25-.57-.51-.1,0-.23-.23-.48-.49-.72-.71-.4-.34.08.12.14.22l-.25-.36c-.18-.29-.34-.59-.5-.89s-.29-.73,0,0l-.18-.48c-.15-.43-.27-.87-.38-1.32s-.16-.78-.24-1.18c-.13-.66,0-.19,0,0,0-.28-.06-.57-.09-.85a22.3,22.3,0,0,1-.09-2.83c0-.06,0-.53,0-.53s-.19.92,0,.32c.06-.25.1-.5.17-.75s.32-1.07.11-.43.16-.24.25-.41a2.53,2.53,0,0,0,.18-.27c.11-.34-.64.61-.2.25a4.7,4.7,0,0,0,.44-.45c.52-.58-.52.26-.09,0,.23-.12.46-.28.68-.42a2.64,2.64,0,0,0,.29-.15c.5-.33-.68.2-.29.12a6.91,6.91,0,0,0,.73-.24c.13,0,1.57-.33,1.57-.34,0,.15-.87.08-.36.06l.38,0c.3,0,.59,0,.88-.05.65,0,1.3,0,1.94.05s1.14.1,1.7.16c-1.13-.12,0,0,.28.05l1.09.19c1.29.25,2.57.55,3.84.89,2.41.66,4.79,1.46,7.13,2.35.9.34,1.8.7,2.69,1.07.7.28-.58-.26-.22-.1l.42.18.81.36.61.28a3.56,3.56,0,0,0,4.74-1.24A3.49,3.49,0,0,0,1446.72,387.55Z"/><path class="cls-8" d="M1468.32,402.83s.49-19.35-23.35-12.29c-15.49,8.88-.9,39,3,38,0,0,13.58-12.82-2.56-36.81C1445.37,391.77,1459.11,406.66,1468.32,402.83Z"/><path class="cls-7" d="M1471.78,402.83a17.48,17.48,0,0,0-6-13.57c-4.07-3.26-9.29-4.13-14.38-3.55a41,41,0,0,0-5.49,1,12.2,12.2,0,0,0-4.9,2.39,15.74,15.74,0,0,0-4.57,5.9c-2.25,5.08-2.23,10.63-1.29,16a46.72,46.72,0,0,0,4.81,13.82c1.48,2.77,4,7.26,7.68,7.24,2.66,0,4.31-2.71,5.52-4.75,5.85-9.83,3.64-21.85-1.38-31.52a64.54,64.54,0,0,0-3.44-5.77l-5.44,4.2a56,56,0,0,0,8.95,7.67c4.79,3.34,11.48,6.62,17.37,4.28a3.57,3.57,0,0,0,2.42-4.26c-.45-1.65-2.51-3.11-4.26-2.41a10.93,10.93,0,0,1-1.86.52c.93-.18.19,0,0,0h-1c-.22,0-1.31-.2-.33,0l-.75-.14a15.73,15.73,0,0,1-2-.59l-.77-.29c.84.32-.28-.13-.43-.2q-.89-.42-1.74-.9a40.91,40.91,0,0,1-3.54-2.27l-.88-.65c-.58-.43.47.38-.14-.1s-1.05-.85-1.57-1.28q-1.17-1-2.28-2c-.76-.71-1.52-1.43-2.22-2.2-2.64-2.85-7.64.9-5.44,4.2a47.56,47.56,0,0,1,6,11.94,34.91,34.91,0,0,1,1.22,5.26c.08.53-.06-.57,0,0,0,.2.05.39.07.58,0,.38.06.76.08,1.14q.06,1.14,0,2.28c0,.67-.1,1.33-.15,2,0,.21-.11.67,0-.21,0,.16,0,.31-.07.46-.06.34-.12.67-.19,1a22.89,22.89,0,0,1-.93,3.26c0,.08-.19.67-.27.69s.38-.84.14-.33c0,.11-.1.21-.14.32-.19.39-.38.79-.59,1.17a18.9,18.9,0,0,1-1.21,2c-.08.13-.17.24-.26.36-.42.6.31-.36.19-.23s-.3.36-.45.53-.28.32-.43.46l1.53-.89a2.29,2.29,0,0,1,1.44,0c-.6-.17.75.36.44.21a1.83,1.83,0,0,1-.3-.18c-.23-.16.78.73.21.16-.26-.27-.53-.54-.78-.82-.44-.49-.25-.06.08.12-.17-.09-.37-.49-.48-.65a30.05,30.05,0,0,1-1.76-2.94c-.3-.58-.59-1.17-.87-1.76-.13-.28-.25-.56-.37-.84,0-.05-.33-.77-.11-.23s0-.14-.09-.25a46,46,0,0,1-2.58-8.9l-.18-1.16c.12.8,0-.06,0-.36-.09-.81-.14-1.62-.16-2.44s0-1.43,0-2.14c0-.37.06-.74.09-1.12,0-.13.09-.67,0-.15s.05-.27.07-.38a19.18,19.18,0,0,1,.47-2c.1-.34.22-.68.34-1,0-.12.23-.61,0-.14s.11-.23.16-.33a16.38,16.38,0,0,1,1-1.72c.08-.13.18-.25.27-.38-.48.69-.19.22,0,.05s.52-.59.81-.87.54-.49.81-.74.51-.31-.11.09l.41-.29.43-.28c.68-.42-.42.1.2-.09s1.23-.33,1.84-.48c1-.23,1.94-.41,2.91-.57s-.41,0,.2,0l.61-.06c.49-.05,1-.08,1.48-.1a21.87,21.87,0,0,1,2.29,0l.63.06c.13,0,.67.09.15,0s.17,0,.24.05l.56.11a15.83,15.83,0,0,1,1.75.51c.93.31-.48-.27.2.07.31.15.62.3.93.48.11.06,1.22.78,1.21.8s-.7-.6-.23-.16l.32.28c.21.19.41.39.6.59l.44.49c.55.61-.32-.52,0-.07s.58.85.84,1.31c.12.21.23.43.34.66s.09.18.13.26c.24.46-.12.23-.12-.29a5.9,5.9,0,0,0,.47,1.29,18.68,18.68,0,0,1,.56,2.35c.18,1-.08-.94,0,.12,0,.24,0,.49.06.73s0,.46,0,.68a3.46,3.46,0,0,0,6.92,0Z"/><rect class="cls-9" x="1367.03" y="364.44" width="49.9" height="66.45" transform="translate(-55.56 417.16) rotate(-16.72)"/><rect class="cls-9" x="1397.72" y="353.09" width="49.9" height="66.45" transform="translate(-40.85 209.29) rotate(-8.29)"/><rect class="cls-9" x="1341.42" y="359.75" width="49.9" height="66.45" transform="matrix(0.84, -0.55, 0.55, 0.84, 8.39, 814.04)"/><rect class="cls-9" x="1432.64" y="359.75" width="49.9" height="66.45" transform="translate(32.24 -104.39) rotate(4.15)"/><rect class="cls-9" x="1454.2" y="359.78" width="49.9" height="66.45" transform="translate(154.22 -373.08) rotate(15.16)"/><path class="cls-2" d="M1445.89,408.27c1.66,4.77,3.25,9.57,4.94,14.33,40.07-16.8,95.55-5.71,41.18,15.67a2.08,2.08,0,0,0-.54.37c-.15,4.41-.12,9.41-.3,13.65-.1,2.33-.33,3.61-.5,5.74v0a8.41,8.41,0,0,1-.52,2.41c5.51-2.81,7-5.38,12.63-8.82C1563,414.56,1502.12,380.16,1445.89,408.27Z"/><path class="cls-2" d="M1464.36,428.22c-9.15,4.43-18.61-1.41-22.74-10.46s-.52-18.95,8.36-22.85,21.48-2.1,24.32,7.36-.79,21.51-9.94,26"/><path class="cls-2" d="M1401.65,404.66c-1.21,4.89-2.38,9.85-3.62,14.75-32-11-102.89-.45-45.58,19.54a2.19,2.19,0,0,1,.62.34c.55,4.13,1,8.76,1.23,12.77.11,2.2.32,3.43.5,5.44v0a7.86,7.86,0,0,0,.52,2.29c-5.54-2.5-7.25-3.94-13-7C1279.78,420,1345,382.67,1401.65,404.66Z"/><path class="cls-2" d="M1385.2,425.87c9.36,4,18.31-2.76,21.5-12.1s-.92-18.94-10.3-22.11-21.46-.47-23.69,9.54a22,22,0,0,0,12.49,24.67"/></g><g id="_4" data-name="4"><path class="cls-2" d="M2015.49,423.88a114.12,114.12,0,0,0,40.77-24.52c40.74-38.42,37.37-94.64,36.65-104.08l14.56,1.46c.88,9.21,5.81,71.52-39.53,114.3a126.35,126.35,0,0,1-53.09,29.5q.32-8.32.64-16.66"/><path class="cls-2" d="M2082,306.1a18.17,18.17,0,1,1,18.17,18.17A18.17,18.17,0,0,1,2082,306.1"/><path class="cls-2" d="M1958.42,423.88a114,114,0,0,1-40.77-24.52c-40.74-38.42-37.37-94.64-36.66-104.08l-14.55,1.46c-.88,9.21-5.82,71.52,39.53,114.3a126.29,126.29,0,0,0,53.09,29.5q-.33-8.32-.64-16.66"/><path class="cls-2" d="M1891.93,306.1a18.18,18.18,0,1,0-18.17,18.17,18.18,18.18,0,0,0,18.17-18.17"/><path class="cls-2" d="M1978.25,677.66c-24.65-31.69-30.23-56.32-23.19-95.92,5.77-32.46,13.38-64,26.77-94.76-3.58-.68-.28-11.31-6.65-7.11-25.4,16.71-37,65-41.11,96.43-3.91,29.77.67,79,31.66,97.06-9.27,8.45-18.79,14.73-28.73,21.78-4.54,2.52-9,5.85-6.66,11.71s5.35,8.68,12.54,7.43c11.63-2,23.63-8.6,35.36-11.69,4-4.36,8.12-5.64,8.58-12.43C1987.15,685.24,1983,679.78,1978.25,677.66Z"/><path class="cls-2" d="M2046.48,694.15c-10.35-7.67-20.62-14.16-30.54-22.88,30.61-18.08,32.28-64.58,29.12-93.75-3.33-30.76-12.63-83.64-40.13-97.33-6.9-3.43-2.94,6.34-6.43,7.87,16.2,28.83,20.67,62.54,25.14,93.88,5.45,38.25,4.75,62.48-20.62,92.73-5,1.51-9.09,6.66-9,11.57.17,6.79,4.23,8.7,8.16,13.24,12.29,3.81,25.6,10.74,37.65,13.54,7.45,1.73,10.23-.89,12.91-6.67S2050.92,696.87,2046.48,694.15Z"/><path class="cls-2" d="M2058,407.35V421a109.7,109.7,0,0,0-10.45-8.6,113.52,113.52,0,0,0-18-10.64l-.11-.05a121.41,121.41,0,0,0-11.65-4.76c-.08-2-.15-4-.23-5.94-.13-3.56-.28-7.13-.41-10.69v0l.13,0A132.31,132.31,0,0,1,2044,391a124.81,124.81,0,0,1,13.37,8.28c.12.8.23,1.61.31,2.42v.05A53.75,53.75,0,0,1,2058,407.35Z"/><path class="cls-3" d="M2058,407.35v46c0,.63,0,1.26,0,1.89a52.35,52.35,0,0,1-1.46,10.69A54.21,54.21,0,0,1,2004,507.34h-29a53.57,53.57,0,0,1-30.37-9.42,54.08,54.08,0,0,1-22.16-32A53,53,0,0,1,1921,455.2c0-.63,0-1.26,0-1.89v-46a53.76,53.76,0,0,1,.28-5.56v-.05A54.44,54.44,0,0,1,1950.93,359a53.53,53.53,0,0,1,24.06-5.69h29A53.5,53.5,0,0,1,2028,359a54.38,54.38,0,0,1,27.42,32,53.32,53.32,0,0,1,1.94,8.28c.12.8.23,1.61.31,2.42v.05A53.75,53.75,0,0,1,2058,407.35Z"/><path class="cls-2" d="M2052.7,476.59a53.85,53.85,0,0,1-6.81,10.69H1933.07a53.36,53.36,0,0,1-6.8-10.69Z"/><path class="cls-2" d="M2056.5,465.9a53.67,53.67,0,0,1-3.8,10.69H1926.27a54.33,54.33,0,0,1-3.81-10.69Z"/><path class="cls-4" d="M1921,444.57v8.74q0,.94,0,1.89a53.15,53.15,0,0,0,1.46,10.7h134a52.45,52.45,0,0,0,1.46-10.7c0-.63,0-1.26,0-1.89v-8.74Z"/><rect class="cls-2" x="1920.97" y="433.82" width="137.03" height="10.68"/><rect class="cls-2" x="1920.97" y="423.13" width="137.03" height="10.69"/><path class="cls-2" d="M2057.71,401.74H1921.25a54.1,54.1,0,0,1,2.25-10.7h132a53.32,53.32,0,0,1,1.94,8.28C2057.52,400.12,2057.63,400.93,2057.71,401.74Z"/><path class="cls-2" d="M2055.46,391.05h-132a53.51,53.51,0,0,1,4.76-10.7h122.45A54,54,0,0,1,2055.46,391.05Z"/><path class="cls-4" d="M2057.71,401.79H1921.25a53.76,53.76,0,0,0-.28,5.56v15.78h137V407.35A53.75,53.75,0,0,0,2057.71,401.79Z"/><path class="cls-4" d="M2042.57,369.66A54.51,54.51,0,0,0,2028,359h-77.11a54.3,54.3,0,0,0-14.53,10.63,53.74,53.74,0,0,0-8.14,10.69h122.45A54.12,54.12,0,0,0,2042.57,369.66Z"/><path class="cls-4" d="M1933.07,487.28a54.31,54.31,0,0,0,11.55,10.64,53.57,53.57,0,0,0,30.37,9.42h29a54.07,54.07,0,0,0,41.92-20.06Z"/><path class="cls-5" d="M1911,280.51s-15.25-25.29-3-62.49c0,0,28.56,5.82,37.94,20.46s6,8.18,6,8.18l-35.35,39.81Z"/><path class="cls-6" d="M1911.38,238.1s7.43-.35,17.56,13.05l-11.23,20.16S1908.22,267.75,1911.38,238.1Z"/><path class="cls-5" d="M2065.73,280.51s15.25-25.29,3-62.49c0,0-28.57,5.82-38,20.46s-6,8.18-6,8.18l35.34,39.81Z"/><path class="cls-6" d="M2065.32,238.1s-7.42-.35-17.55,13.05L2059,271.31S2068.48,267.75,2065.32,238.1Z"/><path class="cls-4" d="M2081.67,307.66s-3.5,3.3-9.47,8.14c-17,13.89-53.8,40.62-85.37,40.55-26.86,0-61.73-23.15-80.81-37.53-8.55-6.46-14-11.16-14-11.16s11.23-1.19,19.93-18.16c29-69.52,74.84-62.93,74.84-62.93,45.11-1.12,72.12,50.23,74.92,62.93S2081.67,307.66,2081.67,307.66Z"/><path class="cls-7" d="M2081.67,307.66s-3.5,3.3-9.47,8.14a1.84,1.84,0,0,1-.91-1.82c.77-3.23-37.6-14.45-60.89-24.7-18.09-8-21.11-48.26-21.11-48.26s.84,33.74-20.34,48.69a24.41,24.41,0,0,1-5.54,2.8c-41.88,16.07-57.25,26.38-57.25,26.38l-.14-.07c-8.55-6.46-14-11.16-14-11.16s11.23-1.19,19.93-18.16c29-69.52,74.84-62.93,74.84-62.93,45.11-1.12,72.12,50.23,74.92,62.93S2081.67,307.66,2081.67,307.66Z"/><path class="cls-4" d="M2009.19,282.36a11.63,11.63,0,0,1,23.25,0c0,2,3.18,2,3.15,0a14.78,14.78,0,0,0-29.56,0c0,2,3.13,2,3.16,0Z"/><path class="cls-4" d="M1947.11,282.36a11.63,11.63,0,0,1,23.25,0,1.58,1.58,0,0,0,3.16,0,14.79,14.79,0,0,0-29.57,0,1.58,1.58,0,0,0,3.16,0Z"/><path class="cls-2" d="M1996.8,291.38s-7.49-5.85-17.07,0C1979.73,291.38,1988.51,316.64,1996.8,291.38Z"/><path class="cls-2" d="M1970.63,304.1c3,2.13,5.95,4.09,8.7,4.63a7.72,7.72,0,0,0,3.62-.2,9.05,9.05,0,0,0,3.17-2.16l2.48-2.16,2,2.32a7.7,7.7,0,0,0,3,2.05,8.09,8.09,0,0,0,3.59.29,10.7,10.7,0,0,0,4.09-1.71c1.48-.82,2.75-2,4.3-3.06l.29.19c-1.9,2.95-4.33,5.83-7.78,7.14s-7.48.05-10.06-2.52l.5,0a11.64,11.64,0,0,1-4.73,2.69,8.93,8.93,0,0,1-5.41-.32,18.72,18.72,0,0,1-8-7Z"/><polygon class="cls-2" points="2014.79 299.11 2080.85 306.26 2014.59 301.2 2014.79 299.11"/><polygon class="cls-2" points="2014.58 296.4 2104.32 290.12 2014.75 298.49 2014.58 296.4"/><polygon class="cls-2" points="2013.72 293.78 2090.04 278.98 2014.15 295.83 2013.72 293.78"/><polygon class="cls-2" points="1964.37 302.36 1898.11 307.42 1964.18 300.28 1964.37 302.36"/><polygon class="cls-2" points="1964.22 299.66 1874.65 291.28 1964.39 297.57 1964.22 299.66"/><polygon class="cls-2" points="1964.81 296.99 1888.92 280.14 1965.24 294.94 1964.81 296.99"/><path class="cls-8" d="M2011.83,357.2s-30.59-14.42-30.31,1.58c.26,15.25,10,12.47,21.76,9.47s42.82-10.94,40.12-24.86C2040.37,327.69,2034.05,325.52,2011.83,357.2Z"/><path class="cls-7" d="M2013.57,354.21a86.16,86.16,0,0,0-10.18-4c-5.47-1.75-11.78-3.37-17.51-2a9.94,9.94,0,0,0-6.59,4.89c-1.79,3.49-1.43,7.9-.55,11.6a11.57,11.57,0,0,0,6.88,8.46c3.17,1.26,6.72.89,10,.35,3.46-.57,6.85-1.52,10.24-2.4,3.05-.78,6.09-1.6,9.1-2.5,7.15-2.15,14.41-4.68,20.86-8.52,5.43-3.24,11.29-8.24,11.22-15.15a26,26,0,0,0-1.65-7.87,15.94,15.94,0,0,0-3.22-5.84c-3.4-3.6-8.37-2.73-12.12-.22-6.51,4.36-11.44,11.13-16.08,17.31q-2.62,3.5-5.12,7.09a3.48,3.48,0,0,0,1.24,4.73,3.53,3.53,0,0,0,4.73-1.24c4.89-7,9.66-13.8,16-19.65.47-.44.94-.86,1.44-1.27.12-.11.93-.75.45-.38s.36-.26.49-.35c.4-.28.81-.55,1.24-.8.17-.1,1.18-.49,1.21-.63-.07.29-.89.32-.38.17l.25-.09.55-.17c.15,0,.33,0,.47-.1s-1,0-.24,0h.48c.73,0-.7-.19-.36-.05a2.46,2.46,0,0,0,.39.09c.68.14-.39-.22-.27-.13s1,.67.43.2-.06-.05.06.07l.39.4c.46.46-.12,0-.18-.25a2,2,0,0,0,.32.45,10.43,10.43,0,0,1,.62,1.08l.24.51c.35.71-.24-.67-.06-.15s.36.93.51,1.41c.34,1,.61,2.06.85,3.11.12.55.24,1.1.35,1.65,0,.13,0,.27.07.4.14.62,0-.32,0-.31s0,.83,0,1-.06,1.18,0,.51-.07.31-.11.49a6.29,6.29,0,0,1-.22.74c0,.12-.09.24-.13.37-.19.64.36-.65,0-.11s-.56,1.08-.91,1.58c-.16.24-.74.85-.08.15-.25.27-.47.56-.71.83-.44.48-.9.93-1.38,1.36-.26.24-.54.47-.81.7l-.38.3c.68-.59.06,0-.08.06a48.25,48.25,0,0,1-8.32,4.76l-1.18.53-.51.22c-.85.36-1.71.71-2.57,1-1.59.61-3.19,1.18-4.81,1.73-5.71,1.92-11.55,3.44-17.39,4.92-1.67.43-3.34.84-5,1.19-.76.15-1.52.28-2.28.41s0,0,.14,0l-.63.07c-.41.05-.81.08-1.22.1-.66,0-1.31,0-2,0-.95,0,.39.12-.16,0-.34-.08-.68-.14-1-.23-.14,0-1.08-.42-.53-.16s-.32-.19-.47-.27c-.41-.25-.57-.51-.1,0-.23-.23-.48-.49-.72-.7-.4-.35.08.12.14.21l-.31-.45c-.18-.29-.33-.6-.5-.9s-.19-.59.06.15c-.06-.16-.13-.32-.18-.48a13.1,13.1,0,0,1-.38-1.32c-.1-.4-.17-.79-.24-1.19-.19-1,0,.42,0-.21,0-.23-.05-.46-.07-.68-.08-1-.09-2-.08-2.94a1.8,1.8,0,0,1,0-.42c-.07.09-.16.79,0,.32.06-.28.11-.56.18-.83a2.35,2.35,0,0,0,.11-.35c.13-.56.22.13-.12.26a4.28,4.28,0,0,0,.39-.74c.34-.66-.34.3-.07.06s.3-.31.44-.46a3.58,3.58,0,0,0,.29-.26c.25-.29-.67.39-.32.26a5.53,5.53,0,0,0,.69-.42c.76-.45-.35.08,0,0l.64-.22c.25-.07.51-.14.76-.19s1.21-.18.53-.11.35,0,.48,0l.78,0c.61,0,1.23,0,1.84,0s1.27.11,1.9.19c-.76-.09-.27,0,.17,0l1.09.19c1.32.26,2.63.57,3.93.92,2.41.66,4.77,1.45,7.1,2.34.87.33,1.74.68,2.61,1l-.17-.07.43.18.8.35.61.28a3.55,3.55,0,0,0,4.73-1.24A3.49,3.49,0,0,0,2013.57,354.21Z"/><path class="cls-8" d="M2035.22,369.52s.49-19.39-23.39-12.32c-15.52,8.9-.91,39.1,3,38.11,0,0,13.61-12.84-2.57-36.88C2012.22,358.43,2026,373.36,2035.22,369.52Z"/><path class="cls-7" d="M2038.68,369.52c.12-5-2.1-10.48-6-13.6-4.08-3.27-9.3-4.13-14.41-3.55a41,41,0,0,0-5.49,1,12.2,12.2,0,0,0-4.9,2.39,15.8,15.8,0,0,0-4.59,5.91c-2.25,5.09-2.23,10.65-1.29,16.05a46.76,46.76,0,0,0,4.83,13.85c1.47,2.77,4,7.27,7.68,7.24,2.66,0,4.31-2.71,5.53-4.75,5.86-9.85,3.64-21.89-1.39-31.58a61.05,61.05,0,0,0-3.45-5.77l-5.43,4.19a54.68,54.68,0,0,0,9,7.68c4.8,3.35,11.5,6.64,17.4,4.3a3.57,3.57,0,0,0,2.42-4.26c-.45-1.65-2.51-3.11-4.26-2.42a10,10,0,0,1-1.87.52c.93-.18.2,0,0,0h-1c-.22,0-1.31-.2-.34,0l-.75-.15a18.21,18.21,0,0,1-2-.58l-.76-.29c.83.31-.29-.14-.44-.21q-.88-.42-1.74-.9a39.59,39.59,0,0,1-3.55-2.27c-.29-.22-.58-.44-.88-.65-.59-.43.47.38-.14-.11s-1.06-.84-1.58-1.28q-1.17-1-2.28-2c-.77-.71-1.52-1.44-2.23-2.2-2.63-2.85-7.64.89-5.44,4.19a47.32,47.32,0,0,1,6,12,35.19,35.19,0,0,1,1.22,5.26c.08.54-.06-.56,0,0,0,.2,0,.39.06.59,0,.37.06.75.08,1.13,0,.76,0,1.53,0,2.29s-.1,1.33-.14,2c0,.2-.12.66,0-.21,0,.15,0,.31-.07.46-.06.34-.12.67-.19,1a22.65,22.65,0,0,1-.93,3.27c0,.09-.19.67-.27.7s.38-.84.13-.33c0,.1-.09.21-.14.31-.18.4-.37.79-.58,1.18a20.25,20.25,0,0,1-1.22,2l-.26.36c-.42.6.31-.37.19-.23s-.3.36-.45.53-.28.31-.43.46l1.53-.89a2.29,2.29,0,0,1,1.44,0c-.6-.17.74.36.44.21l-.3-.18c-.23-.16.77.72.21.15-.27-.27-.53-.54-.79-.82-.43-.48-.25-.07.08.12-.17-.09-.36-.49-.47-.65a28.29,28.29,0,0,1-1.77-2.94q-.45-.87-.87-1.77l-.38-.84c0-.05-.32-.77-.1-.23s-.06-.14-.1-.25a45.28,45.28,0,0,1-2.57-8.92c-.07-.38-.13-.77-.19-1.16.12.8,0-.07,0-.37-.09-.81-.14-1.62-.16-2.44s0-1.43,0-2.15c0-.37.06-.74.09-1.11,0-.13.09-.67,0-.15s0-.28.07-.39a19.18,19.18,0,0,1,.47-2c.11-.34.23-.68.34-1,0-.12.24-.6,0-.13s.11-.24.16-.34a18.26,18.26,0,0,1,1-1.72c.09-.13.19-.25.27-.38-.47.69-.18.22,0,.05s.53-.6.82-.88.54-.48.81-.73.51-.31-.11.08l.41-.29.43-.28c.68-.42-.41.1.2-.09s1.23-.33,1.85-.48c1-.23,1.94-.41,2.92-.57s-.42,0,.19,0l.62-.06c.49-.05,1-.08,1.48-.1a22.06,22.06,0,0,1,2.3,0l.63.06c.13,0,.67.09.14,0s.18,0,.25,0l.56.11a15.39,15.39,0,0,1,1.76.51c.92.31-.49-.27.19.07.32.16.63.31.94.48.11.07,1.23.77,1.21.8s-.7-.6-.23-.15c.11.09.22.18.32.28a8.35,8.35,0,0,1,.6.59l.44.49c.56.61-.32-.52,0-.07s.58.85.83,1.31c.13.22.24.44.35.66s.08.18.13.27c.24.46-.13.2-.12-.3a5.66,5.66,0,0,0,.47,1.3,20.6,20.6,0,0,1,.56,2.35c.18,1-.08-.94,0,.12,0,.25,0,.49.06.74s0,.45,0,.68a3.46,3.46,0,0,0,6.92,0Z"/><rect class="cls-9" x="2110.78" y="209.12" width="49.9" height="66.45" transform="translate(541.61 -1199.47) rotate(35.65)"/><rect class="cls-9" x="1964.53" y="130.43" width="49.9" height="66.45" transform="translate(16.83 -142.05) rotate(4.11)"/><rect class="cls-9" x="2023.82" y="109.78" width="49.9" height="66.45" transform="translate(108.66 -530.72) rotate(15.16)"/><rect class="cls-9" x="1867.11" y="130.43" width="49.9" height="66.45" transform="translate(17.8 469.99) rotate(-14.23)"/><rect class="cls-9" x="1797.86" y="154.59" width="49.9" height="66.45" transform="translate(241.33 1113.47) rotate(-36.22)"/><rect class="cls-9" x="1782.84" y="246.92" width="49.9" height="66.45" transform="translate(526.41 1585.77) rotate(-54.35)"/><rect class="cls-9" x="1906.98" y="64.76" width="49.9" height="66.45" transform="translate(17.26 373.67) rotate(-11.1)"/><rect class="cls-9" x="2097.86" y="112.69" width="49.9" height="66.45" transform="translate(112 -549.97) rotate(15.16)"/><rect class="cls-9" x="2177.35" y="124.58" width="49.9" height="66.45" transform="translate(756.63 -1511.04) rotate(45)"/><ellipse class="cls-14" cx="1991.14" cy="757.02" rx="52.43" ry="10.72"/></g><g id="_5" data-name="5"><ellipse class="cls-15" cx="2555.8" cy="748.2" rx="93.44" ry="20.68"/><path class="cls-2" d="M2624.86,440.71v9.83q-1.12.91-2.25,1.77c-1.91,1.47-3.83,2.84-5.73,4.14h0a124.72,124.72,0,0,1-19.23,10.66,134,134,0,0,1-18.67,6.71c.09-2.24.17-4.47.26-6.71.13-3.3.25-6.61.39-9.92l2.06-.74h0a116.54,116.54,0,0,0,21.71-10.67c1.84-1.15,3.69-2.4,5.55-3.73a107.22,107.22,0,0,0,8.66-6.88l.06-.06c.87-.77,1.74-1.56,2.6-2.36l1.7-1.64,1.69-1.71c.23,1.08.43,2.19.6,3.3.13.8.23,1.6.32,2.41v.06A53.38,53.38,0,0,1,2624.86,440.71Z"/><path class="cls-2" d="M2545.31,710.34c-24.58-31.61-30.15-56.17-23.13-95.68,5.75-32.37,13.34-63.83,26.7-94.52-3.57-.68-.28-11.28-6.63-7.09-25.34,16.67-36.89,64.87-41,96.19-3.91,29.69.66,78.76,31.57,96.82-9.24,8.42-18.74,14.68-28.65,21.72-4.53,2.51-9,5.84-6.65,11.68s5.34,8.66,12.51,7.41c11.61-2,23.57-8.58,35.27-11.66,4-4.34,8.1-5.62,8.56-12.4C2554.19,717.91,2550.07,712.46,2545.31,710.34Z"/><path class="cls-2" d="M2613.37,726.8c-10.32-7.65-20.57-14.13-30.46-22.83,30.53-18,32.2-64.42,29.05-93.52-3.33-30.67-12.61-83.43-40-97.08-6.88-3.43-2.93,6.32-6.41,7.85,16.15,28.76,20.62,62.38,25.07,93.65,5.44,38.14,4.74,62.32-20.56,92.49-4.94,1.51-9.07,6.65-8.95,11.55.17,6.77,4.22,8.67,8.14,13.2,12.26,3.8,25.54,10.71,37.56,13.5,7.42,1.73,10.2-.88,12.87-6.65S2617.8,729.5,2613.37,726.8Z"/><path class="cls-2" d="M2624.86,440.71v13.65c-.75-.71-1.5-1.38-2.25-2.05q-4.07-3.57-8.17-6.53c-1.83-1.33-3.67-2.57-5.49-3.73a114.68,114.68,0,0,0-12.51-6.88l-.12-.06a118.56,118.56,0,0,0-11.62-4.74c-.07-2-.15-3.94-.22-5.92h0q-.21-5.34-.41-10.66v-.05l.13,0h0a130.87,130.87,0,0,1,26.68,10.66h0a123.48,123.48,0,0,1,11,6.66c.76.51,1.52,1.05,2.29,1.59.13.8.23,1.6.32,2.41v.06A53.38,53.38,0,0,1,2624.86,440.71Z"/><path class="cls-3" d="M2624.86,440.71v45.86c0,.62,0,1.25,0,1.88a52.25,52.25,0,0,1-1.45,10.67q-.49,2.08-1.17,4.11c-.29.91-.61,1.79-.95,2.66-.5,1.33-1.06,2.63-1.67,3.89A54.14,54.14,0,0,1,2571,540.44h-28.91a53.44,53.44,0,0,1-30.29-9.39,54.28,54.28,0,0,1-11.52-10.61,53.5,53.5,0,0,1-6.78-10.66h0c-.61-1.26-1.17-2.56-1.67-3.89-.34-.87-.66-1.75-.95-2.66q-.68-2-1.17-4.11a53,53,0,0,1-1.46-10.67c0-.63,0-1.26,0-1.88V440.71a53.37,53.37,0,0,1,.29-5.54v-.06a53.84,53.84,0,0,1,2.24-10.66h0a53.45,53.45,0,0,1,4.75-10.66h0a54,54,0,0,1,46.61-26.95H2571a53.38,53.38,0,0,1,24,5.68,54.52,54.52,0,0,1,22.61,21.27h0a52.85,52.85,0,0,1,4.74,10.66h0c.53,1.62,1,3.28,1.33,4.95.23,1.08.43,2.19.6,3.3.13.8.23,1.6.32,2.41v.06A53.38,53.38,0,0,1,2624.86,440.71Z"/><path class="cls-2" d="M2619.57,509.78a53.46,53.46,0,0,1-6.79,10.67H2500.25a53.46,53.46,0,0,1-6.79-10.67Z"/><path class="cls-2" d="M2623.37,499.11a54.12,54.12,0,0,1-3.8,10.67H2493.46a54.12,54.12,0,0,1-3.8-10.67Z"/><path class="cls-4" d="M2488.17,477.84v8.72c0,.63,0,1.26,0,1.88a52.85,52.85,0,0,0,1.45,10.67h133.71a52.85,52.85,0,0,0,1.45-10.67c0-.62,0-1.25,0-1.88v-8.72Z"/><rect class="cls-2" x="2488.17" y="467.12" width="136.69" height="10.66"/><rect class="cls-2" x="2488.17" y="456.45" width="136.69" height="10.67"/><path class="cls-2" d="M2624.58,435.11H2488.46a53.84,53.84,0,0,1,2.24-10.66h131.63c.53,1.62,1,3.28,1.33,4.95.23,1.08.43,2.19.6,3.3C2624.39,433.5,2624.49,434.3,2624.58,435.11Z"/><path class="cls-2" d="M2622.33,424.45H2490.7a54.34,54.34,0,0,1,4.74-10.67h122.15A54.34,54.34,0,0,1,2622.33,424.45Z"/><path class="cls-4" d="M2624.58,435.17H2488.46a53.37,53.37,0,0,0-.29,5.54v15.74h136.69V440.71A53.38,53.38,0,0,0,2624.58,435.17Z"/><path class="cls-4" d="M2609.47,403.12A54.25,54.25,0,0,0,2595,392.51h-76.92a54.63,54.63,0,0,0-22.62,21.27h122.15A54.22,54.22,0,0,0,2609.47,403.12Z"/><path class="cls-4" d="M2500.25,520.45a54,54,0,0,0,41.81,20H2571a53.92,53.92,0,0,0,41.81-20Z"/><path class="cls-5" d="M2478.2,314.19s-15.21-25.23-3-62.34c0,0,28.49,5.81,37.85,20.41s5.93,8.17,5.93,8.17l-35.25,39.7Z"/><path class="cls-6" d="M2478.61,271.89s7.41-.36,17.51,13L2484.92,305S2475.46,301.47,2478.61,271.89Z"/><path class="cls-5" d="M2632.57,314.19s15.22-25.23,3-62.34c0,0-28.49,5.81-37.85,20.41s-5.94,8.17-5.94,8.17l35.26,39.7Z"/><path class="cls-6" d="M2632.16,271.89s-7.4-.36-17.5,13l11.2,20.12S2635.32,301.47,2632.16,271.89Z"/><path class="cls-4" d="M2648.48,341.28s-3.5,3.29-9.45,8.11c-16.93,13.86-53.67,40.52-85.16,40.45-26.8,0-61.57-23.09-80.6-37.44-8.54-6.44-13.93-11.12-13.93-11.12s11.2-1.19,19.87-18.13c28.9-69.34,74.66-62.76,74.66-62.76,45-1.12,71.93,50.1,74.73,62.76S2648.48,341.28,2648.48,341.28Z"/><path class="cls-7" d="M2648.48,341.28s-3.5,3.29-9.45,8.11a1.84,1.84,0,0,1-.91-1.82c.77-3.22-37.51-14.41-60.74-24.63-18.05-8-21.06-48.14-21.06-48.14s.84,33.66-20.29,48.56a24.13,24.13,0,0,1-5.53,2.8c-41.77,16-57.09,26.31-57.09,26.31l-.14-.07c-8.54-6.44-13.93-11.12-13.93-11.12s11.2-1.19,19.87-18.13c28.9-69.34,74.66-62.76,74.66-62.76,45-1.12,71.93,50.1,74.73,62.76S2648.48,341.28,2648.48,341.28Z"/><path class="cls-4" d="M2513.91,310.37c.08,3.9,4.65,7.16,10.36,7.15s10.28-3.24,10.36-7.15c0-1.25,2.83-1.25,2.81,0-.08,3.79-3.44,7.17-8.58,8.52s-11.14.25-14.62-2.63a7.87,7.87,0,0,1-3.14-5.89c0-1.25,2.79-1.25,2.81,0Z"/><path class="cls-4" d="M2597.27,310.37c-.08,3.9-4.65,7.16-10.36,7.15s-10.28-3.24-10.36-7.15c0-1.25-2.83-1.25-2.81,0,.08,3.79,3.44,7.17,8.58,8.52s11.14.25,14.62-2.63a7.87,7.87,0,0,0,3.14-5.89c0-1.25-2.79-1.25-2.81,0Z"/><path class="cls-2" d="M2563.82,325s-7.48-5.84-17,0C2546.79,325,2555.54,350.23,2563.82,325Z"/><path class="cls-2" d="M2537.71,337.72c3,2.13,5.93,4.08,8.68,4.62a7.69,7.69,0,0,0,3.61-.2,8.89,8.89,0,0,0,3.16-2.16l2.48-2.15,2,2.32a7.75,7.75,0,0,0,3,2,8,8,0,0,0,3.58.29,10.61,10.61,0,0,0,4.09-1.71,51.35,51.35,0,0,0,4.28-3l.3.19c-1.91,2.94-4.33,5.81-7.77,7.13s-7.46,0-10-2.52l.49,0a11.8,11.8,0,0,1-4.71,2.69,8.9,8.9,0,0,1-5.4-.33,18.63,18.63,0,0,1-8-7Z"/><polygon class="cls-2" points="2581.76 332.75 2647.66 339.87 2581.56 334.83 2581.76 332.75"/><polygon class="cls-2" points="2581.55 330.04 2671.06 323.77 2581.72 332.13 2581.55 330.04"/><polygon class="cls-2" points="2580.7 327.42 2656.82 312.66 2581.12 329.47 2580.7 327.42"/><polygon class="cls-2" points="2531.47 335.99 2465.38 341.03 2531.28 333.91 2531.47 335.99"/><polygon class="cls-2" points="2531.32 333.29 2441.97 324.93 2531.49 331.21 2531.32 333.29"/><polygon class="cls-2" points="2531.91 330.63 2456.21 313.82 2532.33 328.58 2531.91 330.63"/><path class="cls-8" d="M2578.8,390.69s-30.51-14.38-30.23,1.57c.26,15.21,10,12.44,21.71,9.45s42.71-10.91,40-24.8C2607.27,361.26,2601,359.09,2578.8,390.69Z"/><path class="cls-7" d="M2580.55,387.7a83.63,83.63,0,0,0-10.13-3.95c-5.46-1.75-11.74-3.35-17.45-2a9.94,9.94,0,0,0-6.66,4.95c-1.75,3.48-1.39,7.85-.52,11.52a11.58,11.58,0,0,0,6.87,8.45c3.16,1.25,6.7.89,10,.35,3.45-.57,6.84-1.52,10.23-2.4,3-.76,5.92-1.56,8.86-2.44,7.17-2.14,14.45-4.66,20.92-8.49,5.45-3.24,11.35-8.24,11.29-15.17a26.16,26.16,0,0,0-1.63-7.8,15.91,15.91,0,0,0-3.22-5.87c-3.36-3.59-8.32-2.76-12-.28-6.52,4.33-11.46,11.11-16.08,17.28-1.75,2.33-3.46,4.71-5.14,7.09a3.46,3.46,0,0,0,6,3.5c4.87-6.93,9.62-13.74,15.89-19.57.5-.46,1-.91,1.52-1.35.22-.17.44-.34.65-.52-.82.7,0,0,.22-.15.43-.29.86-.58,1.31-.84.19-.11,1.15-.45,1.21-.61-.08.22-.91.32-.19.1l.55-.17c.17,0,.36-.06.53-.11.34-.1-1.09,0-.25,0h.43c.65,0-.82-.22-.41-.07a3.15,3.15,0,0,0,.44.11c.61.13,0,.1-.26-.14a2.82,2.82,0,0,0,.74.45c-.66-.15-.67-.6-.3-.2l.39.39c.5.49-.07-.09-.14-.2.09.15.22.3.32.45a9.47,9.47,0,0,1,.59,1l.24.5c.38.76-.27-.74,0-.08.18.48.36,1,.51,1.43.33,1,.59,2,.82,3,.13.55.25,1.1.35,1.65,0,.14,0,.27.08.41.15.67.06-.63,0-.22a6.55,6.55,0,0,0,0,1c0,.13-.06,1.09,0,.42s-.07.31-.11.49a6.29,6.29,0,0,1-.22.74c0,.13-.09.25-.13.37-.19.64.36-.64,0-.1s-.57,1.07-.92,1.58c-.17.25-.74.83-.09.15-.25.26-.47.56-.71.83-.44.48-.91.93-1.39,1.36l-.81.7-.38.3c.43-.35.24-.18-.09.06a48.2,48.2,0,0,1-8.23,4.7l-1.19.53c-.18.08-1.35.58-.64.28-.82.34-1.63.67-2.45,1-1.64.63-3.29,1.21-5,1.77-5.65,1.89-11.4,3.39-17.17,4.85-1.71.44-3.42.86-5.15,1.21-.71.15-1.42.26-2.13.38s.56,0,0,0l-.5.06-1.23.09c-.65,0-1.3,0-1.95,0-1,0,.4.11-.15,0-.34-.07-.68-.13-1-.22-.15-.05-1.08-.42-.53-.17s-.32-.18-.46-.27c-.42-.25-.57-.5-.1,0-.23-.23-.48-.49-.73-.7-.4-.35.09.12.15.21-.08-.12-.17-.23-.25-.36-.18-.29-.34-.58-.51-.88s-.28-.73,0,.05c-.06-.16-.13-.32-.18-.48a13.1,13.1,0,0,1-.38-1.32c-.1-.39-.16-.79-.24-1.18-.13-.66,0-.19,0,0,0-.29-.06-.57-.09-.86a22.09,22.09,0,0,1-.09-2.82c0-.06,0-.53,0-.53s-.19.92,0,.32c.06-.25.1-.5.16-.75s.33-1.07.12-.43.16-.24.24-.41.15-.17.18-.27c.12-.34-.63.62-.2.26a3.81,3.81,0,0,0,.44-.46c.53-.58-.51.26-.08,0a6.92,6.92,0,0,0,.68-.42c.09-.05.2-.08.29-.14.49-.34-.68.19-.29.12s.49-.18.72-.25,1.58-.32,1.58-.33c0,.15-.87.07-.36,0l.38,0c.29,0,.58,0,.88,0,.64,0,1.29,0,1.93,0s1.14.1,1.7.17c-1.13-.13,0,0,.28,0l1.09.2c1.29.24,2.57.54,3.84.89,2.41.65,4.78,1.45,7.12,2.34.91.34,1.8.7,2.7,1.07l-.23-.1.42.19.81.35.62.28a3.55,3.55,0,0,0,4.73-1.24A3.49,3.49,0,0,0,2580.55,387.7Z"/><path class="cls-8" d="M2602.14,403s.49-19.35-23.34-12.29c-15.48,8.88-.9,39,3,38,0,0,13.57-12.81-2.56-36.79C2579.2,391.92,2592.93,406.8,2602.14,403Z"/><path class="cls-7" d="M2605.6,403c.11-5-2.1-10.46-6-13.57-4.07-3.26-9.28-4.13-14.38-3.55a42.81,42.81,0,0,0-5.48,1,12.22,12.22,0,0,0-4.89,2.39,15.71,15.71,0,0,0-4.58,5.89c-2.25,5.08-2.23,10.63-1.29,16a46.78,46.78,0,0,0,4.82,13.81c1.47,2.77,4,7.26,7.67,7.24,2.65,0,4.31-2.71,5.52-4.75,5.85-9.83,3.64-21.84-1.38-31.51a64.37,64.37,0,0,0-3.44-5.76l-5.44,4.2a55.76,55.76,0,0,0,8.94,7.66c4.8,3.34,11.48,6.62,17.37,4.28a3.56,3.56,0,0,0,2.42-4.25c-.46-1.65-2.51-3.11-4.26-2.42a10,10,0,0,1-1.87.52c.94-.18.2,0,0,0s-.66,0-1,0-1.31-.19-.33,0c-.25,0-.5-.08-.75-.14a15.73,15.73,0,0,1-2-.59l-.76-.28c.83.31-.29-.14-.44-.21q-.89-.42-1.74-.9a36.49,36.49,0,0,1-3.53-2.27l-.88-.64c-.59-.43.47.38-.14-.11s-1.06-.84-1.57-1.28c-.78-.65-1.54-1.33-2.28-2s-1.52-1.43-2.22-2.2c-2.64-2.85-7.64.9-5.44,4.2a47.5,47.5,0,0,1,6,11.93,35.06,35.06,0,0,1,1.22,5.25c.08.54-.06-.56,0,0l.06.58c0,.38.07.76.09,1.13,0,.76.05,1.53,0,2.29s-.09,1.32-.14,2c0,.2-.12.67,0-.21,0,.15,0,.31-.07.46-.05.33-.11.67-.18,1a22.89,22.89,0,0,1-.93,3.26,3.19,3.19,0,0,1-.27.7s.38-.85.14-.34l-.15.32c-.18.4-.37.79-.58,1.17a18.9,18.9,0,0,1-1.21,2c-.08.13-.17.24-.26.36-.42.6.31-.36.18-.23s-.29.36-.44.53-.28.32-.43.46l1.53-.89a2.29,2.29,0,0,1,1.44,0c-.6-.17.75.36.44.21a1.83,1.83,0,0,1-.3-.18c-.23-.16.78.72.21.16-.26-.27-.53-.54-.78-.82-.44-.49-.25-.06.08.12-.17-.09-.36-.49-.48-.65a28.11,28.11,0,0,1-1.75-2.94c-.31-.58-.6-1.16-.87-1.76-.13-.27-.26-.55-.38-.83,0-.06-.33-.77-.1-.24s-.06-.13-.1-.24a45.29,45.29,0,0,1-2.57-8.9c-.07-.38-.13-.77-.18-1.16.12.8,0-.06,0-.36-.08-.81-.14-1.62-.16-2.44s0-1.42,0-2.14c0-.37.06-.74.1-1.11,0-.13.08-.67,0-.15s0-.28.07-.39a16.76,16.76,0,0,1,.47-2c.1-.35.22-.68.33-1,.05-.12.24-.61.05-.14s.11-.23.16-.33a16.3,16.3,0,0,1,1-1.72c.08-.13.18-.26.27-.38-.47.69-.18.22,0,.05s.53-.59.81-.87.54-.49.81-.74.51-.31-.11.09l.41-.29.43-.28c.62-.44-.38.09.2-.09s1.23-.33,1.84-.48c1-.23,1.94-.41,2.91-.57s-.42,0,.19,0l.62-.06c.49-.05,1-.08,1.47-.1a22,22,0,0,1,2.3,0l.63.06c.13,0,.67.09.14,0s.17,0,.24,0l.56.11a15.39,15.39,0,0,1,1.76.51c.92.31-.49-.27.19.07.31.16.63.3.93.48.11.06,1.22.78,1.21.8s-.7-.6-.23-.16l.32.28c.21.19.41.39.6.59l.44.49c.55.61-.33-.52-.05-.07s.58.85.84,1.3c.12.22.23.44.34.67s.08.17.13.26c.23.46-.12.23-.12-.3a6.17,6.17,0,0,0,.47,1.3,21,21,0,0,1,.56,2.34c.18,1-.08-.94,0,.12,0,.25.05.49.06.74s0,.45,0,.68a3.46,3.46,0,0,0,6.92,0Z"/><path class="cls-2" d="M2625.8,455.74c1.53-3.37,4.56-9.56,5.65-12.85,13.73-41.63,14.22-71.6-10.68-108.56,1.38-7.2,1.36-14.92-4.27-20.23-7.64-7.21-17.47-8.12-25.22-.8s-7.34,17.15-.8,25.3c4.73,5.88,11.84,7,19,5.87,19.46,30.13,25.21,48.53,14.43,82.85C2625.88,436.2,2623.89,446.89,2625.8,455.74Z"/><path class="cls-2" d="M2487.35,455.74c-1.53-3.37-4.57-9.56-5.65-12.85-13.74-41.63-14.23-71.6,10.67-108.56-1.37-7.2-1.36-14.92,4.27-20.23,7.64-7.21,17.47-8.12,25.23-.8s7.34,17.15.79,25.3c-4.72,5.88-11.84,7-19,5.87-19.45,30.13-25.21,48.53-14.43,82.85C2487.26,436.2,2489.25,446.89,2487.35,455.74Z"/><rect class="cls-9" x="2635.32" y="646.95" width="49.9" height="6.75" transform="translate(877.74 -1428.75) rotate(35.65)"/><rect class="cls-9" x="2380.81" y="587.56" width="8.1" height="66.45" transform="translate(50.58 -169.19) rotate(4.11)"/><rect class="cls-9" x="2631.87" y="561.46" width="49.9" height="66.45" transform="translate(247.92 -673.99) rotate(15.16)"/><rect class="cls-9" x="2420.67" y="604.8" width="49.9" height="66.45" transform="translate(-81.79 620.58) rotate(-14.23)"/><rect class="cls-9" x="2458.78" y="567.27" width="49.9" height="9.68" transform="translate(141.98 1578.31) rotate(-36.22)"/><rect class="cls-9" x="2366.33" y="667.76" width="49.9" height="66.45" transform="translate(427.84 2235.42) rotate(-54.35)"/><rect class="cls-9" x="2473.65" y="668.31" width="8.65" height="65.36" transform="translate(631.91 2496.48) rotate(-60)"/><rect class="cls-9" x="2678.88" y="664.51" width="49.9" height="66.45" transform="translate(276.5 -682.7) rotate(15.16)"/><rect class="cls-9" x="2639.84" y="671.92" width="8.5" height="66.45" transform="translate(1273.05 -1663.12) rotate(45)"/></g></svg>
